<?xml version="1.0" encoding="utf-8"?>
<!-- Generator: Adobe Illustrator 24.1.0, SVG Export Plug-In . SVG Version: 6.00 Build 0)  -->
<svg version="1.1" xmlns="http://www.w3.org/2000/svg" xmlns:xlink="http://www.w3.org/1999/xlink" x="0px" y="0px"
	 viewBox="0 0 36.07 29.78" style="enable-background:new 0 0 36.07 29.78;" xml:space="preserve">
<style type="text/css">
	.st0{display:none;}
	.st1{display:inline;}
	.st2{fill:none;stroke:#000000;stroke-width:0.05;stroke-miterlimit:10;}
	.st3{fill:#4A4A4A;}
	.st4{fill:none;stroke:#000000;stroke-miterlimit:10;}
	.st5{fill:none;}
	.st6{fill:none;stroke:#4A4A4A;stroke-width:1.5;stroke-miterlimit:10;}
	.st7{fill:none;stroke:#4A4A4A;stroke-miterlimit:10;}
</style>
<g id="Grid" class="st0">
</g>
<g id="Artwork">
	<g>
		<polygon class="st3" points="29.28,9.59 29.28,3.64 23.22,3.64 23.22,5.14 26.72,5.14 18.03,13.83 9.34,5.14 12.88,5.14 
			12.88,3.64 6.78,3.64 6.78,9.69 8.28,9.69 8.28,6.2 16.97,14.89 8.28,23.58 8.28,20.04 6.78,20.04 6.78,26.14 12.84,26.14 
			12.84,24.64 9.34,24.64 18.03,15.95 26.72,24.64 23.33,24.64 23.33,26.14 29.28,26.14 29.28,20.07 27.78,20.07 27.78,23.58 
			19.09,14.89 27.78,6.2 27.78,9.59 		"/>
	</g>
</g>
</svg>
