<svg id="Artwork" xmlns="http://www.w3.org/2000/svg" viewBox="0 0 36.07 29.78"><defs><style>.cls-1{fill:#4a4a4a;}</style></defs><path class="cls-1" d="M35.43,14.26C30,9,24.2,6.34,18.19,6.35h-.63C7.68,6.66.88,14,.6,14.29l-.49.54.52.5c5.48,5.38,11.3,8.11,17.31,8.11h.72c9.84-.35,16.53-7.81,16.81-8.13l.48-.53ZM18.22,21.93h-.36a7,7,0,0,1,0-14.08h.28a7,7,0,0,1,.06,14.08Zm-16-7.14A27,27,0,0,1,12,8.88a8.52,8.52,0,0,0,0,12A26.83,26.83,0,0,1,2.22,14.79ZM24.1,20.9A8.53,8.53,0,0,0,24,8.74a26.53,26.53,0,0,1,9.89,6.08A26.72,26.72,0,0,1,24.1,20.9Z"/><path class="cls-1" d="M18,17a2.15,2.15,0,0,1,0-4.29v-1.5a3.65,3.65,0,1,0,3.65,3.65h-1.5A2.15,2.15,0,0,1,18,17Z"/></svg>