<svg xmlns="http://www.w3.org/2000/svg" xmlns:xlink="http://www.w3.org/1999/xlink" width="500" zoomAndPan="magnify" viewBox="0 0 375 374.999991" height="500" preserveAspectRatio="xMidYMid meet" version="1.0"><defs><g/><clipPath id="a102642be7"><path d="M 189 37.5 L 216 37.5 L 216 105 L 189 105 Z M 189 37.5 " clip-rule="nonzero"/></clipPath><clipPath id="e8e7974083"><path d="M 155 37.5 L 182 37.5 L 182 105 L 155 105 Z M 155 37.5 " clip-rule="nonzero"/></clipPath><clipPath id="e01b2d5920"><path d="M 93.71875 95 L 165 95 L 165 124 L 93.71875 124 Z M 93.71875 95 " clip-rule="nonzero"/></clipPath><clipPath id="3c612abca9"><path d="M 93.71875 128 L 165 128 L 165 157 L 93.71875 157 Z M 93.71875 128 " clip-rule="nonzero"/></clipPath><clipPath id="aa06c2292b"><path d="M 189 147 L 216 147 L 216 214.5 L 189 214.5 Z M 189 147 " clip-rule="nonzero"/></clipPath><clipPath id="df326759b3"><path d="M 155 147 L 182 147 L 182 214.5 L 155 214.5 Z M 155 147 " clip-rule="nonzero"/></clipPath><clipPath id="e449a525e7"><path d="M 205 128 L 276.71875 128 L 276.71875 157 L 205 157 Z M 205 128 " clip-rule="nonzero"/></clipPath><clipPath id="7b16789b6d"><path d="M 205 95 L 276.71875 95 L 276.71875 124 L 205 124 Z M 205 95 " clip-rule="nonzero"/></clipPath></defs><g clip-path="url(#a102642be7)"><path fill="#ffffff" d="M 193.171875 100.191406 L 193.171875 87.484375 L 203.859375 81.75 C 207.394531 79.851562 210.191406 77.175781 212.109375 73.980469 C 214.027344 70.78125 215.066406 66.609375 215.066406 62.59375 L 215.066406 37.5 L 212.191406 39.15625 L 200.003906 46.128906 C 196.628906 48.046875 193.949219 50.726562 192.132812 53.863281 C 190.3125 57.019531 189.335938 63.132812 189.335938 67.027344 L 189.335938 78.773438 L 191.152344 77.796875 C 192.433594 77.117188 193.191406 75.855469 193.191406 74.398438 L 193.191406 67.027344 C 193.191406 63.8125 193.988281 60.832031 195.46875 58.277344 C 196.945312 55.71875 199.144531 53.542969 201.941406 51.945312 L 211.25 46.609375 L 211.25 62.59375 C 211.25 65.886719 210.410156 68.964844 208.851562 71.5625 C 207.296875 74.179688 204.996094 76.355469 202.101562 77.914062 L 191.394531 83.648438 C 190.113281 84.328125 189.355469 85.585938 189.355469 87.042969 L 189.355469 104.546875 L 191.171875 103.566406 C 192.433594 102.90625 193.171875 101.648438 193.171875 100.191406 Z M 193.171875 100.191406 " fill-opacity="1" fill-rule="nonzero"/></g><g clip-path="url(#e8e7974083)"><path fill="#ffffff" d="M 166.640625 81.769531 L 177.328125 87.503906 L 177.328125 100.210938 C 177.328125 101.667969 178.066406 102.925781 179.367188 103.605469 L 181.183594 104.585938 L 181.183594 87.085938 C 181.183594 85.625 180.425781 84.367188 179.148438 83.6875 L 168.4375 77.953125 C 165.542969 76.398438 163.246094 74.21875 161.6875 71.601562 C 160.128906 69.003906 159.289062 65.929688 159.289062 62.632812 L 159.289062 46.648438 L 168.597656 51.984375 C 171.375 53.582031 173.574219 55.757812 175.070312 58.316406 C 176.550781 60.875 177.347656 63.851562 177.347656 67.066406 L 177.347656 74.4375 C 177.347656 75.898438 178.109375 77.15625 179.386719 77.835938 L 181.203125 78.8125 L 181.203125 67.066406 C 181.203125 63.171875 180.226562 57.058594 178.40625 53.902344 C 176.570312 50.746094 173.914062 48.089844 170.535156 46.171875 L 158.351562 39.199219 L 155.472656 37.539062 L 155.472656 62.632812 C 155.472656 66.628906 156.511719 70.804688 158.429688 74.019531 C 160.308594 77.195312 163.105469 79.871094 166.640625 81.769531 Z M 166.640625 81.769531 " fill-opacity="1" fill-rule="nonzero"/></g><path fill="#ffffff" d="M 136.273438 92.976562 L 141.929688 96.234375 L 146.464844 98.851562 L 146.523438 96.792969 C 146.5625 95.335938 145.863281 94.058594 144.605469 93.316406 L 143.867188 92.898438 L 138.210938 89.640625 C 135.433594 88.042969 133.238281 85.847656 131.757812 83.289062 C 130.28125 80.730469 129.5 77.734375 129.523438 74.519531 L 129.5625 63.789062 L 143.40625 71.78125 C 146.261719 73.441406 148.5 75.699219 149.980469 78.355469 C 151.457031 81.011719 152.214844 84.089844 152.097656 87.382812 L 151.71875 99.53125 C 151.675781 100.988281 152.375 102.269531 153.636719 102.988281 L 168.796875 111.738281 L 168.859375 109.660156 C 168.898438 108.199219 168.199219 106.921875 166.941406 106.203125 L 155.933594 99.851562 L 156.3125 87.722656 C 156.453125 83.726562 155.53125 79.953125 153.714844 76.695312 C 151.898438 73.441406 148.800781 70.441406 145.34375 68.445312 L 128.601562 58.796875 L 123.589844 55.898438 L 123.570312 59.214844 L 123.507812 73.261719 C 123.488281 77.15625 124.46875 80.792969 126.265625 83.949219 C 128.101562 87.125 132.898438 91.019531 136.273438 92.976562 Z M 136.273438 92.976562 " fill-opacity="1" fill-rule="nonzero"/><g clip-path="url(#e01b2d5920)"><path fill="#ffffff" d="M 115.496094 120.109375 C 118.953125 122.105469 123.089844 123.285156 126.824219 123.246094 C 130.5625 123.183594 134.277344 122.105469 137.691406 119.988281 L 148 113.59375 L 159.007812 119.949219 C 160.265625 120.667969 161.726562 120.648438 162.964844 119.886719 L 164.722656 118.789062 L 149.558594 110.039062 C 148.300781 109.320312 146.84375 109.339844 145.605469 110.097656 L 135.277344 116.511719 C 132.480469 118.25 129.441406 119.148438 126.40625 119.1875 C 123.367188 119.230469 120.292969 118.429688 117.433594 116.792969 L 103.589844 108.800781 L 112.859375 103.40625 C 115.636719 101.789062 118.613281 100.96875 121.570312 100.96875 C 124.527344 100.96875 127.503906 101.769531 130.28125 103.367188 L 135.933594 106.621094 L 136.675781 107.042969 C 137.933594 107.78125 139.390625 107.742188 140.628906 106.984375 L 142.386719 105.902344 L 137.851562 103.285156 L 132.199219 100.03125 C 128.824219 98.09375 123.050781 95.875 119.394531 95.875 C 115.757812 95.894531 112.121094 96.875 108.746094 98.832031 L 96.597656 105.902344 L 93.722656 107.582031 L 98.734375 110.480469 Z M 115.496094 120.109375 " fill-opacity="1" fill-rule="nonzero"/></g><path fill="#ffffff" d="M 155.914062 152.03125 L 166.921875 145.679688 C 168.179688 144.960938 168.898438 143.679688 168.839844 142.222656 L 168.777344 140.144531 L 153.636719 148.894531 C 152.375 149.636719 151.65625 150.914062 151.695312 152.351562 L 152.078125 164.5 C 152.175781 167.773438 151.4375 170.871094 149.960938 173.527344 C 148.480469 176.183594 146.242188 178.441406 143.386719 180.101562 L 129.542969 188.09375 L 129.5 177.363281 C 129.480469 174.148438 130.28125 171.171875 131.738281 168.59375 C 133.21875 166.035156 135.394531 163.859375 138.191406 162.242188 L 143.847656 158.984375 L 144.585938 158.566406 C 145.84375 157.824219 146.5625 156.566406 146.503906 155.089844 L 146.441406 153.03125 L 141.90625 155.648438 L 136.253906 158.90625 C 132.878906 160.84375 128.082031 164.757812 126.265625 167.914062 C 124.449219 171.070312 123.488281 174.707031 123.507812 178.601562 L 123.570312 192.648438 L 123.589844 195.964844 L 128.601562 193.066406 L 145.324219 183.417969 C 148.78125 181.417969 151.875 178.421875 153.695312 175.167969 C 155.511719 171.910156 156.433594 168.132812 156.292969 164.140625 Z M 155.914062 152.03125 " fill-opacity="1" fill-rule="nonzero"/><g clip-path="url(#3c612abca9)"><path fill="#ffffff" d="M 137.851562 148.617188 L 142.386719 146 L 140.628906 144.921875 C 139.390625 144.160156 137.933594 144.121094 136.675781 144.859375 L 135.933594 145.28125 L 130.28125 148.535156 C 127.503906 150.132812 124.507812 150.953125 121.570312 150.933594 C 118.613281 150.933594 115.636719 150.113281 112.859375 148.496094 L 103.589844 143.101562 L 117.433594 135.109375 C 120.292969 133.453125 123.367188 132.652344 126.40625 132.714844 C 129.441406 132.753906 132.5 133.652344 135.277344 135.390625 L 145.605469 141.804688 C 146.84375 142.582031 148.300781 142.582031 149.558594 141.863281 L 164.722656 133.113281 L 162.964844 132.015625 C 161.726562 131.253906 160.265625 131.234375 159.007812 131.953125 L 148 138.308594 L 137.691406 131.914062 C 134.296875 129.796875 130.5625 128.71875 126.824219 128.660156 C 123.089844 128.597656 118.953125 129.777344 115.496094 131.792969 L 98.777344 141.445312 L 93.761719 144.339844 L 96.636719 146.019531 L 108.785156 153.089844 C 112.140625 155.050781 115.777344 156.027344 119.433594 156.046875 C 123.070312 156.046875 128.863281 153.851562 132.238281 151.890625 Z M 137.851562 148.617188 " fill-opacity="1" fill-rule="nonzero"/></g><g clip-path="url(#aa06c2292b)"><path fill="#ffffff" d="M 203.878906 170.113281 L 193.191406 164.378906 L 193.191406 151.691406 C 193.191406 150.234375 192.433594 148.976562 191.152344 148.296875 L 189.335938 147.316406 L 189.335938 164.816406 C 189.335938 166.277344 190.09375 167.535156 191.371094 168.214844 L 202.082031 173.949219 C 204.976562 175.507812 207.273438 177.683594 208.832031 180.300781 C 210.390625 182.898438 211.230469 185.972656 211.230469 189.269531 L 211.230469 205.253906 L 201.921875 199.917969 C 199.144531 198.320312 196.945312 196.164062 195.449219 193.605469 C 193.96875 191.046875 193.171875 188.070312 193.171875 184.855469 L 193.171875 177.484375 C 193.171875 176.027344 192.410156 174.765625 191.132812 174.085938 L 189.316406 173.109375 L 189.316406 184.855469 C 189.316406 188.75 190.292969 194.863281 192.113281 198.019531 C 193.929688 201.175781 196.605469 203.835938 199.984375 205.753906 L 212.167969 212.726562 L 215.046875 214.382812 L 215.046875 189.289062 C 215.046875 185.296875 214.007812 181.121094 212.089844 177.902344 C 210.210938 174.6875 207.394531 172.011719 203.878906 170.113281 Z M 203.878906 170.113281 " fill-opacity="1" fill-rule="nonzero"/></g><g clip-path="url(#df326759b3)"><path fill="#ffffff" d="M 177.328125 151.691406 L 177.328125 164.398438 L 166.640625 170.132812 C 163.105469 172.011719 160.308594 174.707031 158.390625 177.902344 C 156.472656 181.121094 155.433594 185.296875 155.433594 189.289062 L 155.433594 214.382812 L 158.308594 212.726562 L 170.515625 205.753906 C 173.890625 203.835938 176.570312 201.15625 178.386719 198.019531 C 180.207031 194.863281 181.183594 188.75 181.183594 184.855469 L 181.183594 173.109375 L 179.367188 174.085938 C 178.085938 174.765625 177.328125 176.027344 177.328125 177.484375 L 177.328125 184.855469 C 177.328125 188.070312 176.53125 191.046875 175.050781 193.605469 C 173.574219 196.164062 171.375 198.339844 168.578125 199.917969 L 159.269531 205.253906 L 159.269531 189.269531 C 159.269531 185.972656 160.109375 182.898438 161.664062 180.300781 C 163.222656 177.683594 165.523438 175.507812 168.417969 173.949219 L 179.125 168.214844 C 180.40625 167.535156 181.164062 166.277344 181.164062 164.816406 L 181.164062 147.316406 L 179.347656 148.296875 C 178.085938 148.976562 177.328125 150.234375 177.328125 151.691406 Z M 177.328125 151.691406 " fill-opacity="1" fill-rule="nonzero"/></g><g clip-path="url(#e449a525e7)"><path fill="#ffffff" d="M 271.722656 141.425781 L 255 131.773438 C 251.546875 129.777344 247.410156 128.578125 243.675781 128.636719 C 239.9375 128.699219 236.222656 129.777344 232.808594 131.894531 L 222.5 138.289062 L 211.492188 131.933594 C 210.230469 131.214844 208.773438 131.214844 207.535156 131.996094 L 205.777344 133.09375 L 220.941406 141.84375 C 222.199219 142.5625 223.65625 142.542969 224.894531 141.785156 L 235.222656 135.371094 C 238.019531 133.632812 241.058594 132.734375 244.09375 132.695312 C 247.128906 132.652344 250.207031 133.453125 253.0625 135.089844 L 266.910156 143.082031 L 257.640625 148.476562 C 254.863281 150.09375 251.886719 150.914062 248.929688 150.914062 C 245.972656 150.914062 242.996094 150.113281 240.21875 148.515625 L 234.566406 145.261719 L 233.824219 144.839844 C 232.566406 144.101562 231.109375 144.140625 229.871094 144.898438 L 228.113281 145.980469 L 232.648438 148.597656 L 238.300781 151.851562 C 241.675781 153.789062 247.449219 156.007812 251.105469 156.007812 C 254.742188 155.988281 258.378906 155.007812 261.753906 153.050781 L 273.902344 145.980469 L 276.777344 144.300781 Z M 271.722656 141.425781 " fill-opacity="1" fill-rule="nonzero"/></g><path fill="#ffffff" d="M 234.226562 158.90625 L 228.570312 155.648438 L 224.035156 153.03125 L 223.996094 155.089844 C 223.957031 156.546875 224.65625 157.824219 225.914062 158.566406 L 226.652344 158.984375 L 232.308594 162.242188 C 235.085938 163.839844 237.28125 166.035156 238.738281 168.59375 C 240.21875 171.152344 240.996094 174.148438 240.976562 177.34375 L 240.9375 188.070312 L 227.09375 180.082031 C 224.234375 178.421875 222 176.164062 220.519531 173.507812 C 219.042969 170.851562 218.28125 167.773438 218.402344 164.476562 L 218.78125 152.332031 C 218.824219 150.875 218.125 149.59375 216.84375 148.875 L 201.679688 140.125 L 201.621094 142.203125 C 201.582031 143.660156 202.28125 144.941406 203.539062 145.660156 L 214.546875 152.011719 L 214.148438 164.140625 C 214.007812 168.132812 214.925781 171.910156 216.746094 175.167969 C 218.5625 178.421875 221.660156 181.417969 225.117188 183.417969 L 241.835938 193.066406 L 246.851562 195.964844 L 246.871094 192.648438 L 246.929688 178.601562 C 246.949219 174.707031 245.972656 171.070312 244.175781 167.914062 C 242.414062 164.757812 237.601562 160.863281 234.226562 158.90625 Z M 234.226562 158.90625 " fill-opacity="1" fill-rule="nonzero"/><path fill="#ffffff" d="M 214.585938 99.851562 L 203.578125 106.203125 C 202.320312 106.921875 201.601562 108.199219 201.660156 109.660156 L 201.722656 111.738281 L 216.882812 102.988281 C 218.144531 102.246094 218.863281 100.96875 218.824219 99.53125 L 218.441406 87.382812 C 218.34375 84.089844 219.082031 81.011719 220.558594 78.355469 C 222.039062 75.699219 224.257812 73.441406 227.132812 71.78125 L 240.976562 63.789062 L 241.015625 74.519531 C 241.039062 77.734375 240.238281 80.710938 238.78125 83.289062 C 237.300781 85.847656 235.125 88.023438 232.328125 89.640625 L 226.671875 92.898438 L 225.933594 93.316406 C 224.675781 94.058594 223.957031 95.316406 224.015625 96.773438 L 224.078125 98.832031 L 228.613281 96.214844 L 234.265625 92.957031 C 237.640625 91.019531 242.4375 87.105469 244.253906 83.949219 C 246.070312 80.792969 247.03125 77.15625 247.011719 73.261719 L 246.949219 59.214844 L 246.929688 55.898438 L 241.917969 58.796875 L 225.195312 68.445312 C 221.738281 70.441406 218.640625 73.441406 216.824219 76.695312 C 215.007812 79.953125 214.085938 83.726562 214.226562 87.722656 Z M 214.585938 99.851562 " fill-opacity="1" fill-rule="nonzero"/><g clip-path="url(#7b16789b6d)"><path fill="#ffffff" d="M 232.648438 103.265625 L 228.113281 105.882812 L 229.871094 106.960938 C 231.109375 107.722656 232.566406 107.761719 233.824219 107.023438 L 234.566406 106.601562 L 240.21875 103.347656 C 242.996094 101.75 245.992188 100.929688 248.929688 100.949219 C 251.886719 100.949219 254.863281 101.769531 257.640625 103.386719 L 266.910156 108.78125 L 253.0625 116.773438 C 250.207031 118.429688 247.128906 119.230469 244.09375 119.167969 C 241.058594 119.128906 238 118.230469 235.222656 116.492188 L 224.894531 110.078125 C 223.65625 109.300781 222.199219 109.28125 220.941406 110.019531 L 205.777344 118.769531 L 207.535156 119.847656 C 208.773438 120.605469 210.230469 120.648438 211.492188 119.90625 L 222.5 113.554688 L 232.808594 119.949219 C 236.203125 122.066406 239.9375 123.144531 243.675781 123.203125 C 247.410156 123.265625 251.546875 122.085938 255 120.066406 L 271.722656 110.417969 L 276.738281 107.523438 L 273.859375 105.84375 L 261.714844 98.773438 C 258.359375 96.8125 254.722656 95.835938 251.066406 95.816406 C 247.429688 95.816406 241.636719 98.011719 238.261719 99.96875 Z M 232.648438 103.265625 " fill-opacity="1" fill-rule="nonzero"/></g><g fill="#ffffff" fill-opacity="1"><g transform="translate(55.944728, 317.371088)"><g><path d="M 3.65625 -0.65625 C 4.800781 -0.65625 5.78125 -1.066406 6.59375 -1.890625 C 7.414062 -2.710938 7.851562 -3.695312 7.90625 -4.84375 L 7.90625 -41.609375 C 7.851562 -42.765625 7.414062 -43.75 6.59375 -44.5625 C 5.78125 -45.382812 4.800781 -45.796875 3.65625 -45.796875 L 2.78125 -45.796875 L 2.78125 -46.46875 L 22.96875 -46.46875 L 22.90625 -45.796875 L 22.109375 -45.796875 C 20.953125 -45.796875 19.953125 -45.382812 19.109375 -44.5625 C 18.273438 -43.75 17.859375 -42.765625 17.859375 -41.609375 L 17.859375 -2.859375 L 26.546875 -2.859375 C 29.773438 -2.859375 32.484375 -3.785156 34.671875 -5.640625 C 36.867188 -7.492188 38.5 -10.128906 39.5625 -13.546875 L 40.21875 -13.546875 L 37.171875 0 L 2.78125 0 L 2.78125 -0.65625 Z M 3.65625 -0.65625 "/></g></g></g><g fill="#ffffff" fill-opacity="1"><g transform="translate(100.150092, 317.371088)"><g><path d="M 3.65625 -0.65625 C 4.800781 -0.65625 5.78125 -1.066406 6.59375 -1.890625 C 7.414062 -2.710938 7.851562 -3.695312 7.90625 -4.84375 L 7.90625 -41.8125 C 7.8125 -42.96875 7.476562 -43.8125 6.90625 -44.34375 C 5.84375 -45.3125 4.757812 -45.796875 3.65625 -45.796875 L 2.78125 -45.796875 L 2.78125 -46.46875 L 28.203125 -46.46875 C 30.378906 -46.46875 32.171875 -46.628906 33.578125 -46.953125 C 34.992188 -47.285156 35.859375 -47.519531 36.171875 -47.65625 L 36.171875 -36.046875 L 35.515625 -36.109375 L 35.515625 -36.84375 C 35.515625 -39.582031 34.492188 -41.523438 32.453125 -42.671875 C 31.484375 -43.253906 30.332031 -43.566406 29 -43.609375 L 17.859375 -43.609375 L 17.859375 -24.296875 L 26.609375 -24.296875 C 28.253906 -24.335938 29.609375 -24.898438 30.671875 -25.984375 C 31.734375 -27.066406 32.265625 -28.40625 32.265625 -30 L 32.265625 -30.59375 L 32.921875 -30.59375 L 32.921875 -15.265625 L 32.265625 -15.265625 L 32.265625 -15.796875 C 32.265625 -17.429688 31.742188 -18.78125 30.703125 -19.84375 C 29.660156 -20.90625 28.34375 -21.457031 26.75 -21.5 L 17.859375 -21.5 L 17.859375 -2.859375 L 26.546875 -2.859375 C 29.773438 -2.859375 32.484375 -3.785156 34.671875 -5.640625 C 36.867188 -7.492188 38.5 -10.128906 39.5625 -13.546875 L 40.21875 -13.546875 L 37.171875 0 L 2.78125 0 L 2.78125 -0.65625 Z M 3.65625 -0.65625 "/></g></g></g><g fill="#ffffff" fill-opacity="1"><g transform="translate(145.351058, 317.371088)"><g><path d="M 62.859375 -0.65625 L 63.921875 -0.65625 L 63.921875 0 L 44 0 L 44 -0.59375 L 45 -0.59375 C 45.75 -0.632812 46.390625 -0.941406 46.921875 -1.515625 C 47.453125 -2.097656 47.675781 -2.742188 47.59375 -3.453125 L 45 -27.546875 L 32.53125 -6.046875 C 30.882812 -3.296875 30.039062 -0.835938 30 1.328125 L 29.34375 1.328125 L 12.28125 -27.34375 L 9.6875 -3.453125 C 9.601562 -2.742188 9.828125 -2.085938 10.359375 -1.484375 C 10.890625 -0.890625 11.53125 -0.59375 12.28125 -0.59375 L 13.28125 -0.59375 L 13.28125 0 L -0.59375 0 L -0.59375 -0.65625 L 0.46875 -0.65625 C 1.707031 -0.65625 2.78125 -1.03125 3.6875 -1.78125 C 4.59375 -2.539062 5.132812 -3.5625 5.3125 -4.84375 L 10.8125 -47.390625 L 11.421875 -47.390625 L 32 -13.546875 L 51.765625 -47.390625 L 52.375 -47.390625 L 58.015625 -4.84375 C 58.234375 -3.5625 58.796875 -2.539062 59.703125 -1.78125 C 60.609375 -1.03125 61.660156 -0.65625 62.859375 -0.65625 Z M 62.859375 -0.65625 "/></g></g></g><g fill="#ffffff" fill-opacity="1"><g transform="translate(211.924249, 317.371088)"><g><path d="M 3.65625 -0.65625 C 4.800781 -0.65625 5.78125 -1.066406 6.59375 -1.890625 C 7.414062 -2.710938 7.851562 -3.695312 7.90625 -4.84375 L 7.90625 -41.8125 C 7.8125 -42.96875 7.476562 -43.8125 6.90625 -44.34375 C 5.84375 -45.3125 4.757812 -45.796875 3.65625 -45.796875 L 2.78125 -45.796875 L 2.78125 -46.46875 L 28.203125 -46.46875 C 30.378906 -46.46875 32.171875 -46.628906 33.578125 -46.953125 C 34.992188 -47.285156 35.859375 -47.519531 36.171875 -47.65625 L 36.171875 -36.046875 L 35.515625 -36.109375 L 35.515625 -36.84375 C 35.515625 -39.582031 34.492188 -41.523438 32.453125 -42.671875 C 31.484375 -43.253906 30.332031 -43.566406 29 -43.609375 L 17.859375 -43.609375 L 17.859375 -24.296875 L 26.609375 -24.296875 C 28.253906 -24.335938 29.609375 -24.898438 30.671875 -25.984375 C 31.734375 -27.066406 32.265625 -28.40625 32.265625 -30 L 32.265625 -30.59375 L 32.921875 -30.59375 L 32.921875 -15.265625 L 32.265625 -15.265625 L 32.265625 -15.796875 C 32.265625 -17.429688 31.742188 -18.78125 30.703125 -19.84375 C 29.660156 -20.90625 28.34375 -21.457031 26.75 -21.5 L 17.859375 -21.5 L 17.859375 -2.859375 L 26.546875 -2.859375 C 29.773438 -2.859375 32.484375 -3.785156 34.671875 -5.640625 C 36.867188 -7.492188 38.5 -10.128906 39.5625 -13.546875 L 40.21875 -13.546875 L 37.171875 0 L 2.78125 0 L 2.78125 -0.65625 Z M 3.65625 -0.65625 "/></g></g></g><g fill="#ffffff" fill-opacity="1"><g transform="translate(257.12522, 317.371088)"><g><path d="M 54.234375 -45.796875 C 52.679688 -45.796875 51.503906 -45.132812 50.703125 -43.8125 C 50.347656 -43.226562 50.148438 -42.5625 50.109375 -41.8125 L 50.109375 -7.5625 C 50.109375 -4.601562 50.304688 -2.101562 50.703125 -0.0625 L 50.90625 0.921875 L 50.3125 0.921875 L 16.796875 -31 L 16.796875 -4.640625 C 16.796875 -3.535156 17.191406 -2.59375 17.984375 -1.8125 C 18.785156 -1.039062 19.738281 -0.65625 20.84375 -0.65625 L 22.109375 -0.65625 L 22.109375 0 L 1.984375 0 L 1.984375 -0.65625 L 3.1875 -0.65625 C 4.332031 -0.65625 5.300781 -1.039062 6.09375 -1.8125 C 6.894531 -2.59375 7.296875 -3.5625 7.296875 -4.71875 L 7.296875 -39.15625 C 7.296875 -42.082031 7.097656 -44.519531 6.703125 -46.46875 L 6.578125 -47.453125 L 7.171875 -47.453125 L 40.6875 -15.53125 L 40.6875 -41.75 C 40.644531 -42.894531 40.222656 -43.851562 39.421875 -44.625 C 38.628906 -45.40625 37.679688 -45.796875 36.578125 -45.796875 L 35.375 -45.796875 L 35.375 -46.46875 L 55.484375 -46.46875 L 55.484375 -45.796875 Z M 54.234375 -45.796875 "/></g></g></g><g fill="#ffffff" fill-opacity="1"><g transform="translate(145.723675, 255.092151)"><g><path d="M 8.828125 -14.21875 L 8.828125 -1.546875 C 8.835938 -1.179688 8.972656 -0.867188 9.234375 -0.609375 C 9.503906 -0.347656 9.828125 -0.21875 10.203125 -0.21875 L 10.46875 -0.21875 L 10.484375 0 L 3.921875 0 L 3.921875 -0.21875 L 4.203125 -0.21875 C 4.566406 -0.21875 4.878906 -0.347656 5.140625 -0.609375 C 5.410156 -0.867188 5.5625 -1.175781 5.59375 -1.53125 L 5.59375 -14.21875 L 2.671875 -14.21875 C 2.015625 -14.207031 1.488281 -14 1.09375 -13.59375 C 0.707031 -13.1875 0.515625 -12.660156 0.515625 -12.015625 L 0.515625 -11.765625 L 0.296875 -11.765625 L 0.296875 -15.515625 C 0.890625 -15.265625 1.738281 -15.132812 2.84375 -15.125 L 11.546875 -15.125 C 11.992188 -15.125 12.476562 -15.164062 13 -15.25 C 13.519531 -15.34375 13.882812 -15.429688 14.09375 -15.515625 L 14.09375 -11.765625 L 13.875 -11.765625 L 13.875 -12.015625 C 13.875 -12.910156 13.535156 -13.546875 12.859375 -13.921875 C 12.546875 -14.109375 12.164062 -14.207031 11.71875 -14.21875 Z M 8.828125 -14.21875 "/></g></g></g><g fill="#ffffff" fill-opacity="1"><g transform="translate(176.339458, 255.092151)"><g><path d="M 11.421875 -0.21875 C 11.785156 -0.21875 12.070312 -0.3125 12.28125 -0.5 C 12.613281 -0.832031 12.785156 -1.179688 12.796875 -1.546875 L 12.796875 -7.0625 L 5.796875 -7.0625 L 5.796875 -1.578125 C 5.796875 -1.203125 5.929688 -0.878906 6.203125 -0.609375 C 6.484375 -0.347656 6.8125 -0.21875 7.1875 -0.21875 L 7.4375 -0.21875 L 7.46875 0 L 0.90625 0 L 0.90625 -0.21875 L 1.1875 -0.21875 C 1.5625 -0.21875 1.878906 -0.347656 2.140625 -0.609375 C 2.410156 -0.878906 2.550781 -1.203125 2.5625 -1.578125 L 2.5625 -13.53125 C 2.550781 -13.90625 2.410156 -14.222656 2.140625 -14.484375 C 1.878906 -14.753906 1.5625 -14.890625 1.1875 -14.890625 L 0.90625 -14.890625 L 0.90625 -15.109375 L 7.46875 -15.109375 L 7.4375 -14.890625 L 7.1875 -14.890625 C 6.8125 -14.890625 6.484375 -14.753906 6.203125 -14.484375 C 5.929688 -14.222656 5.796875 -13.90625 5.796875 -13.53125 L 5.796875 -7.984375 L 12.796875 -7.984375 L 12.796875 -13.53125 C 12.785156 -13.90625 12.644531 -14.222656 12.375 -14.484375 C 12.101562 -14.753906 11.785156 -14.890625 11.421875 -14.890625 L 11.140625 -14.890625 L 11.140625 -15.109375 L 17.6875 -15.109375 L 17.6875 -14.890625 L 17.40625 -14.890625 C 17.039062 -14.890625 16.71875 -14.753906 16.4375 -14.484375 C 16.164062 -14.222656 16.03125 -13.90625 16.03125 -13.53125 L 16.03125 -1.578125 C 16.03125 -1.203125 16.164062 -0.878906 16.4375 -0.609375 C 16.71875 -0.347656 17.039062 -0.21875 17.40625 -0.21875 L 17.6875 -0.21875 L 17.6875 0 L 11.140625 0 L 11.140625 -0.21875 Z M 11.421875 -0.21875 "/></g></g></g><g fill="#ffffff" fill-opacity="1"><g transform="translate(211.162088, 255.092151)"><g><path d="M 1.1875 -0.21875 C 1.5625 -0.21875 1.878906 -0.347656 2.140625 -0.609375 C 2.410156 -0.878906 2.550781 -1.203125 2.5625 -1.578125 L 2.5625 -13.59375 C 2.539062 -13.96875 2.4375 -14.242188 2.25 -14.421875 C 1.894531 -14.734375 1.539062 -14.890625 1.1875 -14.890625 L 0.90625 -14.890625 L 0.90625 -15.109375 L 9.171875 -15.109375 C 9.878906 -15.109375 10.460938 -15.160156 10.921875 -15.265625 C 11.378906 -15.367188 11.660156 -15.445312 11.765625 -15.5 L 11.765625 -11.71875 L 11.546875 -11.734375 L 11.546875 -11.96875 C 11.546875 -12.863281 11.210938 -13.5 10.546875 -13.875 C 10.234375 -14.0625 9.859375 -14.160156 9.421875 -14.171875 L 5.796875 -14.171875 L 5.796875 -7.890625 L 8.65625 -7.890625 C 9.1875 -7.910156 9.625 -8.09375 9.96875 -8.4375 C 10.3125 -8.789062 10.484375 -9.226562 10.484375 -9.75 L 10.484375 -9.953125 L 10.703125 -9.953125 L 10.703125 -4.96875 L 10.484375 -4.96875 L 10.484375 -5.140625 C 10.484375 -5.671875 10.3125 -6.109375 9.96875 -6.453125 C 9.632812 -6.796875 9.210938 -6.972656 8.703125 -6.984375 L 5.796875 -6.984375 L 5.796875 -0.921875 L 8.625 -0.921875 C 9.675781 -0.921875 10.554688 -1.222656 11.265625 -1.828125 C 11.984375 -2.429688 12.515625 -3.289062 12.859375 -4.40625 L 13.078125 -4.40625 L 12.078125 0 L 0.90625 0 L 0.90625 -0.21875 Z M 1.1875 -0.21875 "/></g></g></g><g fill="#ffffff" fill-opacity="1"><g transform="translate(315.969886, 316.546574)"><g><path d="M 31.515625 -50.78125 L 31.515625 -5.546875 C 31.566406 -4.210938 32.066406 -3.082031 33.015625 -2.15625 C 33.972656 -1.226562 35.117188 -0.765625 36.453125 -0.765625 L 37.375 -0.765625 L 37.453125 0 L 14.03125 0 L 14.03125 -0.765625 L 15.03125 -0.765625 C 16.3125 -0.765625 17.425781 -1.226562 18.375 -2.15625 C 19.332031 -3.082031 19.859375 -4.1875 19.953125 -5.46875 L 19.953125 -50.78125 L 9.5625 -50.78125 C 7.195312 -50.726562 5.316406 -49.984375 3.921875 -48.546875 C 2.535156 -47.109375 1.84375 -45.234375 1.84375 -42.921875 L 1.84375 -42 L 1.078125 -42 L 1.078125 -55.40625 C 3.179688 -54.53125 6.210938 -54.066406 10.171875 -54.015625 L 41.234375 -54.015625 C 42.828125 -54.015625 44.5625 -54.171875 46.4375 -54.484375 C 48.3125 -54.796875 49.609375 -55.101562 50.328125 -55.40625 L 50.328125 -42 L 49.546875 -42 L 49.546875 -42.921875 C 49.546875 -46.109375 48.335938 -48.367188 45.921875 -49.703125 C 44.796875 -50.367188 43.4375 -50.726562 41.84375 -50.78125 Z M 31.515625 -50.78125 "/></g></g></g><g fill="#ffffff" fill-opacity="1"><g transform="translate(1.469271, 316.546574)"><g><path d="M 35.296875 1.03125 C 25.378906 1.007812 17.59375 -1.488281 11.9375 -6.46875 C 6.289062 -11.457031 3.46875 -18.289062 3.46875 -26.96875 C 3.46875 -35.65625 6.265625 -42.5 11.859375 -47.5 C 17.460938 -52.507812 25.144531 -55.015625 34.90625 -55.015625 C 42.351562 -55.015625 48.75 -53.628906 54.09375 -50.859375 L 54.25 -37.609375 L 53.640625 -37.609375 C 51.015625 -47.054688 45.03125 -51.78125 35.6875 -51.78125 C 29.625 -51.78125 24.832031 -49.582031 21.3125 -45.1875 C 17.789062 -40.800781 16.03125 -34.804688 16.03125 -27.203125 C 16.03125 -19.597656 17.710938 -13.5625 21.078125 -9.09375 C 24.441406 -4.625 29 -2.3125 34.75 -2.15625 C 40.707031 -2.15625 45.253906 -3.644531 48.390625 -6.625 C 51.578125 -9.707031 53.785156 -15 55.015625 -22.5 L 55.640625 -22.5 L 56.40625 -9.25 C 52.25 -2.363281 45.210938 1.0625 35.296875 1.03125 Z M 35.296875 1.03125 "/></g></g></g><path stroke-linecap="butt" transform="matrix(0.75, 0, 0, 0.75, 57.215934, 247.016321)" fill="none" stroke-linejoin="miter" d="M -0.00145306 1.999072 L 85.238136 1.999072 " stroke="#ffffff" stroke-width="4" stroke-opacity="1" stroke-miterlimit="4"/><path stroke-linecap="butt" transform="matrix(0.75, 0, 0, 0.75, 249.363005, 245.860383)" fill="none" stroke-linejoin="miter" d="M 0.000368433 1.998656 L 85.239957 1.998656 " stroke="#ffffff" stroke-width="4" stroke-opacity="1" stroke-miterlimit="4"/><g fill="#ffffff" fill-opacity="1"><g transform="translate(116.626043, 342.862307)"><g><path d="M 10.59375 -0.203125 C 10.945312 -0.203125 11.210938 -0.285156 11.390625 -0.453125 C 11.703125 -0.765625 11.863281 -1.09375 11.875 -1.4375 L 11.875 -6.546875 L 5.390625 -6.546875 L 5.390625 -1.46875 C 5.390625 -1.113281 5.515625 -0.8125 5.765625 -0.5625 C 6.023438 -0.320312 6.328125 -0.203125 6.671875 -0.203125 L 6.90625 -0.203125 L 6.9375 0 L 0.84375 0 L 0.84375 -0.203125 L 1.109375 -0.203125 C 1.453125 -0.203125 1.742188 -0.320312 1.984375 -0.5625 C 2.234375 -0.8125 2.367188 -1.113281 2.390625 -1.46875 L 2.390625 -12.5625 C 2.367188 -12.90625 2.234375 -13.203125 1.984375 -13.453125 C 1.742188 -13.703125 1.453125 -13.828125 1.109375 -13.828125 L 0.84375 -13.828125 L 0.84375 -14.015625 L 6.9375 -14.015625 L 6.90625 -13.828125 L 6.671875 -13.828125 C 6.328125 -13.828125 6.023438 -13.703125 5.765625 -13.453125 C 5.515625 -13.203125 5.390625 -12.90625 5.390625 -12.5625 L 5.390625 -7.40625 L 11.875 -7.40625 L 11.875 -12.5625 C 11.863281 -12.90625 11.734375 -13.203125 11.484375 -13.453125 C 11.242188 -13.703125 10.945312 -13.828125 10.59375 -13.828125 L 10.34375 -13.828125 L 10.34375 -14.015625 L 16.421875 -14.015625 L 16.421875 -13.828125 L 16.171875 -13.828125 C 15.816406 -13.828125 15.515625 -13.703125 15.265625 -13.453125 C 15.015625 -13.203125 14.890625 -12.90625 14.890625 -12.5625 L 14.890625 -1.46875 C 14.890625 -1.113281 15.015625 -0.8125 15.265625 -0.5625 C 15.515625 -0.320312 15.816406 -0.203125 16.171875 -0.203125 L 16.421875 -0.203125 L 16.421875 0 L 10.34375 0 L 10.34375 -0.203125 Z M 10.59375 -0.203125 "/></g></g></g><g fill="#ffffff" fill-opacity="1"><g transform="translate(149.894358, 342.862307)"><g><path d="M 3.109375 -12.328125 C 4.535156 -13.640625 6.453125 -14.296875 8.859375 -14.296875 C 11.273438 -14.296875 13.191406 -13.640625 14.609375 -12.328125 C 16.035156 -11.023438 16.75 -9.25 16.75 -7 C 16.75 -4.757812 16.035156 -2.984375 14.609375 -1.671875 C 13.191406 -0.367188 11.273438 0.28125 8.859375 0.28125 C 6.453125 0.28125 4.535156 -0.367188 3.109375 -1.671875 C 1.691406 -2.984375 0.984375 -4.757812 0.984375 -7 C 0.984375 -9.25 1.691406 -11.023438 3.109375 -12.328125 Z M 5.5 -2.296875 C 6.320312 -1.140625 7.441406 -0.5625 8.859375 -0.5625 C 10.273438 -0.5625 11.394531 -1.140625 12.21875 -2.296875 C 13.050781 -3.453125 13.46875 -5.023438 13.46875 -7.015625 C 13.46875 -9.003906 13.050781 -10.578125 12.21875 -11.734375 C 11.394531 -12.890625 10.273438 -13.46875 8.859375 -13.46875 C 7.441406 -13.46875 6.320312 -12.890625 5.5 -11.734375 C 4.675781 -10.578125 4.265625 -9.003906 4.265625 -7.015625 C 4.265625 -5.023438 4.675781 -3.453125 5.5 -2.296875 Z M 5.5 -2.296875 "/></g></g></g><g fill="#ffffff" fill-opacity="1"><g transform="translate(183.503063, 342.862307)"><g><path d="M 8.1875 -13.203125 L 8.1875 -1.4375 C 8.207031 -1.09375 8.335938 -0.800781 8.578125 -0.5625 C 8.828125 -0.320312 9.125 -0.203125 9.46875 -0.203125 L 9.71875 -0.203125 L 9.734375 0 L 3.640625 0 L 3.640625 -0.203125 L 3.90625 -0.203125 C 4.238281 -0.203125 4.523438 -0.320312 4.765625 -0.5625 C 5.015625 -0.800781 5.15625 -1.085938 5.1875 -1.421875 L 5.1875 -13.203125 L 2.484375 -13.203125 C 1.867188 -13.191406 1.378906 -13 1.015625 -12.625 C 0.660156 -12.25 0.484375 -11.757812 0.484375 -11.15625 L 0.484375 -10.921875 L 0.28125 -10.921875 L 0.28125 -14.40625 C 0.832031 -14.175781 1.617188 -14.054688 2.640625 -14.046875 L 10.71875 -14.046875 C 11.132812 -14.046875 11.582031 -14.082031 12.0625 -14.15625 C 12.550781 -14.238281 12.890625 -14.320312 13.078125 -14.40625 L 13.078125 -10.921875 L 12.875 -10.921875 L 12.875 -11.15625 C 12.875 -11.988281 12.5625 -12.578125 11.9375 -12.921875 C 11.644531 -13.097656 11.289062 -13.191406 10.875 -13.203125 Z M 8.1875 -13.203125 "/></g></g></g><g fill="#ffffff" fill-opacity="1"><g transform="translate(212.866992, 342.862307)"><g><path d="M 1.109375 -0.203125 C 1.453125 -0.203125 1.742188 -0.320312 1.984375 -0.5625 C 2.234375 -0.8125 2.367188 -1.113281 2.390625 -1.46875 L 2.390625 -12.625 C 2.359375 -12.96875 2.253906 -13.21875 2.078125 -13.375 C 1.765625 -13.675781 1.441406 -13.828125 1.109375 -13.828125 L 0.84375 -13.828125 L 0.84375 -14.015625 L 8.515625 -14.015625 C 9.171875 -14.015625 9.710938 -14.066406 10.140625 -14.171875 C 10.566406 -14.273438 10.828125 -14.34375 10.921875 -14.375 L 10.921875 -10.875 L 10.71875 -10.890625 L 10.71875 -11.125 C 10.71875 -11.945312 10.410156 -12.53125 9.796875 -12.875 C 9.503906 -13.050781 9.15625 -13.144531 8.75 -13.15625 L 5.390625 -13.15625 L 5.390625 -7.328125 L 8.03125 -7.328125 C 8.53125 -7.335938 8.9375 -7.503906 9.25 -7.828125 C 9.570312 -8.160156 9.734375 -8.566406 9.734375 -9.046875 L 9.734375 -9.234375 L 9.9375 -9.234375 L 9.9375 -4.609375 L 9.734375 -4.609375 L 9.734375 -4.765625 C 9.734375 -5.265625 9.578125 -5.671875 9.265625 -5.984375 C 8.953125 -6.304688 8.554688 -6.472656 8.078125 -6.484375 L 5.390625 -6.484375 L 5.390625 -0.859375 L 8.015625 -0.859375 C 8.984375 -0.859375 9.796875 -1.140625 10.453125 -1.703125 C 11.117188 -2.265625 11.613281 -3.0625 11.9375 -4.09375 L 12.140625 -4.09375 L 11.21875 0 L 0.84375 0 L 0.84375 -0.203125 Z M 1.109375 -0.203125 "/></g></g></g><g fill="#ffffff" fill-opacity="1"><g transform="translate(241.530133, 342.862307)"><g><path d="M 1.109375 -0.203125 C 1.453125 -0.203125 1.742188 -0.320312 1.984375 -0.5625 C 2.234375 -0.8125 2.367188 -1.113281 2.390625 -1.46875 L 2.390625 -12.5625 C 2.367188 -12.90625 2.234375 -13.203125 1.984375 -13.453125 C 1.742188 -13.703125 1.453125 -13.828125 1.109375 -13.828125 L 0.84375 -13.828125 L 0.84375 -14.015625 L 6.9375 -14.015625 L 6.90625 -13.828125 L 6.671875 -13.828125 C 6.328125 -13.828125 6.023438 -13.703125 5.765625 -13.453125 C 5.515625 -13.203125 5.390625 -12.90625 5.390625 -12.5625 L 5.390625 -0.859375 L 8.015625 -0.859375 C 8.984375 -0.859375 9.796875 -1.140625 10.453125 -1.703125 C 11.117188 -2.265625 11.613281 -3.0625 11.9375 -4.09375 L 12.140625 -4.09375 L 11.21875 0 L 0.84375 0 L 0.84375 -0.203125 Z M 1.109375 -0.203125 "/></g></g></g></svg>