<svg xmlns="http://www.w3.org/2000/svg" xmlns:xlink="http://www.w3.org/1999/xlink" width="500" zoomAndPan="magnify" viewBox="0 0 375 374.999991" height="500" preserveAspectRatio="xMidYMid meet" version="1.0"><defs><g/><clipPath id="96de8c1134"><path d="M 192 31.886719 L 219 31.886719 L 219 99 L 192 99 Z M 192 31.886719 " clip-rule="nonzero"/></clipPath><clipPath id="d6d692730a"><path d="M 159 31.886719 L 185 31.886719 L 185 99 L 159 99 Z M 159 31.886719 " clip-rule="nonzero"/></clipPath><clipPath id="9fb16e0824"><path d="M 97.285156 90 L 169 90 L 169 118 L 97.285156 118 Z M 97.285156 90 " clip-rule="nonzero"/></clipPath><clipPath id="8ecacd1103"><path d="M 97.285156 122 L 169 122 L 169 151 L 97.285156 151 Z M 97.285156 122 " clip-rule="nonzero"/></clipPath><clipPath id="c5ff0ba433"><path d="M 192 141 L 219 141 L 219 208.886719 L 192 208.886719 Z M 192 141 " clip-rule="nonzero"/></clipPath><clipPath id="3b09b887ff"><path d="M 158 141 L 185 141 L 185 208.886719 L 158 208.886719 Z M 158 141 " clip-rule="nonzero"/></clipPath><clipPath id="b8c62feb9c"><path d="M 209 122 L 280.285156 122 L 280.285156 151 L 209 151 Z M 209 122 " clip-rule="nonzero"/></clipPath><clipPath id="f67a80c69c"><path d="M 209 90 L 280.285156 90 L 280.285156 118 L 209 118 Z M 209 90 " clip-rule="nonzero"/></clipPath></defs><g clip-path="url(#96de8c1134)"><path fill="#259b97" d="M 196.683594 94.542969 L 196.683594 81.847656 L 207.367188 76.117188 C 210.902344 74.21875 213.699219 71.542969 215.613281 68.347656 C 217.53125 65.152344 218.570312 60.980469 218.570312 56.964844 L 218.570312 31.886719 L 215.695312 33.546875 L 203.515625 40.515625 C 200.140625 42.429688 197.464844 45.105469 195.648438 48.242188 C 193.828125 51.394531 192.851562 57.507812 192.851562 61.398438 L 192.851562 73.140625 L 194.667969 72.160156 C 195.945312 71.484375 196.707031 70.226562 196.707031 68.765625 L 196.707031 61.398438 C 196.707031 58.183594 197.503906 55.210938 198.980469 52.652344 C 200.460938 50.097656 202.65625 47.921875 205.449219 46.324219 L 214.753906 40.992188 L 214.753906 56.964844 C 214.753906 60.261719 213.917969 63.335938 212.359375 65.933594 C 210.800781 68.546875 208.503906 70.722656 205.609375 72.28125 L 194.910156 78.011719 C 193.628906 78.691406 192.871094 79.949219 192.871094 81.40625 L 192.871094 98.898438 L 194.6875 97.917969 C 195.945312 97.261719 196.683594 96.003906 196.683594 94.542969 Z M 196.683594 94.542969 " fill-opacity="1" fill-rule="nonzero"/></g><g clip-path="url(#d6d692730a)"><path fill="#259b97" d="M 170.167969 76.136719 L 180.851562 81.867188 L 180.851562 94.566406 C 180.851562 96.023438 181.589844 97.28125 182.886719 97.960938 L 184.703125 98.9375 L 184.703125 81.445312 C 184.703125 79.988281 183.945312 78.730469 182.667969 78.050781 L 171.964844 72.320312 C 169.070312 70.765625 166.773438 68.585938 165.21875 65.972656 C 163.660156 63.375 162.820312 60.300781 162.820312 57.007812 L 162.820312 41.03125 L 172.125 46.363281 C 174.902344 47.960938 177.097656 50.136719 178.59375 52.695312 C 180.074219 55.25 180.871094 58.226562 180.871094 61.4375 L 180.871094 68.808594 C 180.871094 70.265625 181.628906 71.523438 182.90625 72.203125 L 184.726562 73.179688 L 184.726562 61.4375 C 184.726562 57.546875 183.746094 51.4375 181.929688 48.28125 C 180.09375 45.125 177.4375 42.46875 174.0625 40.554688 L 161.882812 33.585938 L 159.007812 31.929688 L 159.007812 57.007812 C 159.007812 61 160.046875 65.171875 161.960938 68.386719 C 163.839844 71.5625 166.636719 74.238281 170.167969 76.136719 Z M 170.167969 76.136719 " fill-opacity="1" fill-rule="nonzero"/></g><path fill="#259b97" d="M 139.820312 87.335938 L 145.46875 90.589844 L 150.003906 93.207031 L 150.0625 91.152344 C 150.101562 89.691406 149.402344 88.414062 148.144531 87.675781 L 147.40625 87.257812 L 141.753906 84.003906 C 138.980469 82.40625 136.785156 80.207031 135.304688 77.652344 C 133.828125 75.097656 133.050781 72.101562 133.070312 68.886719 L 133.109375 58.164062 L 146.945312 66.152344 C 149.800781 67.808594 152.039062 70.066406 153.515625 72.722656 C 154.992188 75.375 155.753906 78.453125 155.632812 81.746094 L 155.253906 93.886719 C 155.214844 95.34375 155.914062 96.621094 157.171875 97.339844 L 172.324219 106.085938 L 172.386719 104.007812 C 172.425781 102.550781 171.726562 101.273438 170.46875 100.554688 L 159.464844 94.207031 L 159.847656 82.085938 C 159.984375 78.09375 159.066406 74.316406 157.25 71.0625 C 155.433594 67.808594 152.339844 64.8125 148.882812 62.816406 L 132.152344 53.171875 L 127.140625 50.277344 L 127.121094 53.59375 L 127.058594 67.628906 C 127.039062 71.523438 128.019531 75.15625 129.816406 78.3125 C 131.652344 81.488281 136.445312 85.378906 139.820312 87.335938 Z M 139.820312 87.335938 " fill-opacity="1" fill-rule="nonzero"/><g clip-path="url(#9fb16e0824)"><path fill="#259b97" d="M 119.054688 114.453125 C 122.507812 116.449219 126.640625 117.625 130.375 117.585938 C 134.109375 117.527344 137.820312 116.449219 141.238281 114.332031 L 151.539062 107.941406 L 162.542969 114.292969 C 163.800781 115.011719 165.257812 114.992188 166.496094 114.234375 L 168.253906 113.132812 L 153.097656 104.390625 C 151.839844 103.667969 150.382812 103.691406 149.144531 104.449219 L 138.820312 110.859375 C 136.023438 112.59375 132.988281 113.492188 129.957031 113.535156 C 126.921875 113.574219 123.84375 112.773438 120.988281 111.136719 L 107.152344 103.152344 L 116.417969 97.757812 C 119.191406 96.140625 122.167969 95.324219 125.125 95.324219 C 128.078125 95.324219 131.054688 96.121094 133.828125 97.71875 L 139.480469 100.972656 L 140.21875 101.394531 C 141.476562 102.132812 142.933594 102.09375 144.171875 101.332031 L 145.929688 100.253906 L 141.394531 97.640625 L 135.746094 94.386719 C 132.371094 92.449219 126.601562 90.230469 122.945312 90.230469 C 119.3125 90.253906 115.679688 91.230469 112.304688 93.1875 L 100.164062 100.253906 L 97.289062 101.933594 L 102.300781 104.828125 Z M 119.054688 114.453125 " fill-opacity="1" fill-rule="nonzero"/></g><path fill="#259b97" d="M 159.445312 146.359375 L 170.449219 140.011719 C 171.707031 139.292969 172.425781 138.011719 172.367188 136.554688 L 172.304688 134.480469 L 157.171875 143.226562 C 155.914062 143.964844 155.195312 145.242188 155.234375 146.679688 L 155.613281 158.820312 C 155.710938 162.09375 154.972656 165.1875 153.496094 167.84375 C 152.019531 170.5 149.78125 172.757812 146.925781 174.414062 L 133.089844 182.398438 L 133.050781 171.679688 C 133.03125 168.464844 133.828125 165.488281 135.285156 162.914062 C 136.765625 160.355469 138.941406 158.179688 141.734375 156.5625 L 147.386719 153.308594 L 148.125 152.890625 C 149.382812 152.148438 150.101562 150.890625 150.042969 149.414062 L 149.980469 147.359375 L 145.449219 149.972656 L 139.800781 153.226562 C 136.425781 155.164062 131.632812 159.078125 129.816406 162.234375 C 128 165.386719 127.039062 169.023438 127.058594 172.914062 L 127.121094 186.953125 L 127.140625 190.265625 L 132.152344 187.371094 L 148.863281 177.726562 C 152.316406 175.730469 155.414062 172.734375 157.230469 169.480469 C 159.046875 166.226562 159.964844 162.453125 159.824219 158.460938 Z M 159.445312 146.359375 " fill-opacity="1" fill-rule="nonzero"/><g clip-path="url(#8ecacd1103)"><path fill="#259b97" d="M 141.394531 142.945312 L 145.929688 140.328125 L 144.171875 139.25 C 142.933594 138.492188 141.476562 138.453125 140.21875 139.191406 L 139.480469 139.609375 L 133.828125 142.867188 C 131.054688 144.460938 128.058594 145.28125 125.125 145.261719 C 122.167969 145.261719 119.191406 144.441406 116.417969 142.824219 L 107.152344 137.433594 L 120.988281 129.449219 C 123.84375 127.789062 126.921875 126.992188 129.957031 127.050781 C 132.988281 127.089844 136.046875 127.988281 138.820312 129.726562 L 149.144531 136.136719 C 150.382812 136.914062 151.839844 136.914062 153.097656 136.195312 L 168.253906 127.449219 L 166.496094 126.351562 C 165.257812 125.59375 163.800781 125.574219 162.542969 126.292969 L 151.539062 132.640625 L 141.238281 126.253906 C 137.84375 124.136719 134.109375 123.058594 130.375 123 C 126.640625 122.9375 122.507812 124.117188 119.054688 126.132812 L 102.339844 135.777344 L 97.328125 138.671875 L 100.203125 140.347656 L 112.34375 147.417969 C 115.699219 149.375 119.332031 150.351562 122.988281 150.371094 C 126.621094 150.371094 132.410156 148.175781 135.785156 146.21875 Z M 141.394531 142.945312 " fill-opacity="1" fill-rule="nonzero"/></g><g clip-path="url(#c5ff0ba433)"><path fill="#259b97" d="M 207.386719 164.429688 L 196.707031 158.699219 L 196.707031 146.019531 C 196.707031 144.5625 195.945312 143.304688 194.667969 142.625 L 192.851562 141.648438 L 192.851562 159.136719 C 192.851562 160.597656 193.609375 161.855469 194.886719 162.53125 L 205.589844 168.261719 C 208.484375 169.820312 210.78125 171.996094 212.339844 174.613281 C 213.898438 177.207031 214.734375 180.285156 214.734375 183.578125 L 214.734375 199.550781 L 205.429688 194.222656 C 202.65625 192.625 200.460938 190.46875 198.960938 187.910156 C 197.484375 185.355469 196.683594 182.378906 196.683594 179.164062 L 196.683594 171.796875 C 196.683594 170.339844 195.925781 169.082031 194.648438 168.402344 L 192.832031 167.425781 L 192.832031 179.164062 C 192.832031 183.058594 193.808594 189.167969 195.628906 192.324219 C 197.445312 195.480469 200.121094 198.132812 203.492188 200.050781 L 215.675781 207.019531 L 218.550781 208.675781 L 218.550781 183.597656 C 218.550781 179.605469 217.511719 175.433594 215.59375 172.21875 C 213.71875 169.003906 210.902344 166.328125 207.386719 164.429688 Z M 207.386719 164.429688 " fill-opacity="1" fill-rule="nonzero"/></g><g clip-path="url(#3b09b887ff)"><path fill="#259b97" d="M 180.851562 146.019531 L 180.851562 158.71875 L 170.167969 164.449219 C 166.636719 166.328125 163.839844 169.023438 161.921875 172.21875 C 160.003906 175.433594 158.96875 179.605469 158.96875 183.597656 L 158.96875 208.675781 L 161.84375 207.019531 L 174.042969 200.050781 C 177.417969 198.132812 180.09375 195.457031 181.910156 192.324219 C 183.726562 189.167969 184.703125 183.058594 184.703125 179.164062 L 184.703125 167.425781 L 182.886719 168.402344 C 181.609375 169.082031 180.851562 170.339844 180.851562 171.796875 L 180.851562 179.164062 C 180.851562 182.378906 180.050781 185.355469 178.574219 187.910156 C 177.097656 190.46875 174.902344 192.644531 172.105469 194.222656 L 162.800781 199.550781 L 162.800781 183.578125 C 162.800781 180.285156 163.640625 177.207031 165.195312 174.613281 C 166.753906 171.996094 169.050781 169.820312 171.945312 168.261719 L 182.648438 162.53125 C 183.925781 161.855469 184.683594 160.597656 184.683594 159.136719 L 184.683594 141.648438 L 182.867188 142.625 C 181.609375 143.304688 180.851562 144.5625 180.851562 146.019531 Z M 180.851562 146.019531 " fill-opacity="1" fill-rule="nonzero"/></g><g clip-path="url(#b8c62feb9c)"><path fill="#259b97" d="M 275.195312 135.757812 L 258.484375 126.113281 C 255.027344 124.117188 250.894531 122.917969 247.164062 122.976562 C 243.429688 123.039062 239.714844 124.117188 236.300781 126.234375 L 225.996094 132.621094 L 214.996094 126.273438 C 213.738281 125.554688 212.28125 125.554688 211.042969 126.332031 L 209.285156 127.429688 L 224.441406 136.175781 C 225.699219 136.894531 227.15625 136.875 228.394531 136.117188 L 238.714844 129.707031 C 241.511719 127.96875 244.546875 127.070312 247.582031 127.03125 C 250.617188 126.992188 253.691406 127.789062 256.546875 129.425781 L 270.382812 137.414062 L 261.121094 142.804688 C 258.34375 144.421875 255.367188 145.242188 252.414062 145.242188 C 249.457031 145.242188 246.484375 144.441406 243.707031 142.84375 L 238.058594 139.589844 L 237.320312 139.171875 C 236.058594 138.433594 234.601562 138.472656 233.363281 139.230469 L 231.609375 140.308594 L 236.140625 142.925781 L 241.792969 146.179688 C 245.164062 148.117188 250.9375 150.332031 254.589844 150.332031 C 258.222656 150.3125 261.859375 149.335938 265.234375 147.378906 L 277.371094 140.308594 L 280.246094 138.632812 Z M 275.195312 135.757812 " fill-opacity="1" fill-rule="nonzero"/></g><path fill="#259b97" d="M 237.71875 153.226562 L 232.066406 149.972656 L 227.535156 147.359375 L 227.496094 149.414062 C 227.453125 150.871094 228.152344 152.148438 229.410156 152.890625 L 230.148438 153.308594 L 235.800781 156.5625 C 238.578125 158.160156 240.773438 160.355469 242.230469 162.914062 C 243.707031 165.46875 244.488281 168.464844 244.464844 171.65625 L 244.425781 182.378906 L 230.589844 174.394531 C 227.734375 172.734375 225.496094 170.480469 224.019531 167.824219 C 222.542969 165.167969 221.785156 162.09375 221.902344 158.800781 L 222.28125 146.660156 C 222.324219 145.203125 221.625 143.921875 220.347656 143.203125 L 205.191406 134.460938 L 205.132812 136.535156 C 205.089844 137.992188 205.789062 139.269531 207.046875 139.988281 L 218.050781 146.339844 L 217.652344 158.460938 C 217.511719 162.453125 218.429688 166.226562 220.246094 169.480469 C 222.0625 172.734375 225.160156 175.730469 228.613281 177.726562 L 245.324219 187.371094 L 250.335938 190.265625 L 250.355469 186.953125 L 250.417969 172.914062 C 250.4375 169.023438 249.457031 165.386719 247.660156 162.234375 C 245.90625 159.078125 241.09375 155.183594 237.71875 153.226562 Z M 237.71875 153.226562 " fill-opacity="1" fill-rule="nonzero"/><path fill="#259b97" d="M 218.089844 94.207031 L 207.089844 100.554688 C 205.832031 101.273438 205.113281 102.550781 205.171875 104.007812 L 205.230469 106.085938 L 220.386719 97.339844 C 221.644531 96.601562 222.363281 95.324219 222.324219 93.886719 L 221.945312 81.746094 C 221.84375 78.453125 222.582031 75.375 224.058594 72.722656 C 225.539062 70.066406 227.753906 67.808594 230.628906 66.152344 L 244.464844 58.164062 L 244.507812 68.886719 C 244.527344 72.101562 243.726562 75.078125 242.269531 77.652344 C 240.792969 80.207031 238.617188 82.386719 235.820312 84.003906 L 230.171875 87.257812 L 229.429688 87.675781 C 228.171875 88.414062 227.453125 89.671875 227.515625 91.128906 L 227.574219 93.1875 L 232.105469 90.570312 L 237.757812 87.316406 C 241.132812 85.378906 245.925781 81.464844 247.742188 78.3125 C 249.558594 75.15625 250.515625 71.523438 250.496094 67.628906 L 250.4375 53.59375 L 250.417969 50.277344 L 245.40625 53.171875 L 228.691406 62.816406 C 225.238281 64.8125 222.144531 67.808594 220.328125 71.0625 C 218.507812 74.316406 217.589844 78.09375 217.730469 82.085938 Z M 218.089844 94.207031 " fill-opacity="1" fill-rule="nonzero"/><g clip-path="url(#f67a80c69c)"><path fill="#259b97" d="M 236.140625 97.621094 L 231.609375 100.234375 L 233.363281 101.3125 C 234.601562 102.074219 236.058594 102.113281 237.320312 101.375 L 238.058594 100.953125 L 243.707031 97.699219 C 246.484375 96.101562 249.476562 95.285156 252.414062 95.304688 C 255.367188 95.304688 258.34375 96.121094 261.121094 97.738281 L 270.382812 103.128906 L 256.546875 111.117188 C 253.691406 112.773438 250.617188 113.574219 247.582031 113.515625 C 244.546875 113.472656 241.492188 112.574219 238.714844 110.839844 L 228.394531 104.429688 C 227.15625 103.648438 225.699219 103.628906 224.441406 104.367188 L 209.285156 113.113281 L 211.042969 114.191406 C 212.28125 114.953125 213.738281 114.992188 214.996094 114.253906 L 225.996094 107.902344 L 236.300781 114.292969 C 239.695312 116.410156 243.429688 117.488281 247.164062 117.546875 C 250.894531 117.605469 255.027344 116.429688 258.484375 114.414062 L 275.195312 104.769531 L 280.207031 101.871094 L 277.332031 100.195312 L 265.191406 93.128906 C 261.839844 91.171875 258.203125 90.191406 254.550781 90.171875 C 250.917969 90.171875 245.125 92.367188 241.75 94.324219 Z M 236.140625 97.621094 " fill-opacity="1" fill-rule="nonzero"/></g><g fill="#259b97" fill-opacity="1"><g transform="translate(59.528529, 311.424205)"><g><path d="M 3.65625 -0.65625 C 4.800781 -0.65625 5.78125 -1.066406 6.59375 -1.890625 C 7.414062 -2.710938 7.847656 -3.695312 7.890625 -4.84375 L 7.890625 -41.59375 C 7.847656 -42.75 7.414062 -43.734375 6.59375 -44.546875 C 5.78125 -45.367188 4.800781 -45.78125 3.65625 -45.78125 L 2.78125 -45.78125 L 2.78125 -46.4375 L 22.953125 -46.4375 L 22.890625 -45.78125 L 22.09375 -45.78125 C 20.945312 -45.78125 19.953125 -45.367188 19.109375 -44.546875 C 18.265625 -43.734375 17.84375 -42.75 17.84375 -41.59375 L 17.84375 -2.859375 L 26.53125 -2.859375 C 29.757812 -2.859375 32.46875 -3.785156 34.65625 -5.640625 C 36.851562 -7.492188 38.484375 -10.125 39.546875 -13.53125 L 40.203125 -13.53125 L 37.15625 0 L 2.78125 0 L 2.78125 -0.65625 Z M 3.65625 -0.65625 "/></g></g></g><g fill="#259b97" fill-opacity="1"><g transform="translate(103.710363, 311.424205)"><g><path d="M 3.65625 -0.65625 C 4.800781 -0.65625 5.78125 -1.066406 6.59375 -1.890625 C 7.414062 -2.710938 7.847656 -3.695312 7.890625 -4.84375 L 7.890625 -41.796875 C 7.804688 -42.941406 7.476562 -43.78125 6.90625 -44.3125 C 5.84375 -45.289062 4.757812 -45.78125 3.65625 -45.78125 L 2.78125 -45.78125 L 2.78125 -46.4375 L 28.203125 -46.4375 C 30.367188 -46.4375 32.15625 -46.601562 33.5625 -46.9375 C 34.976562 -47.269531 35.84375 -47.503906 36.15625 -47.640625 L 36.15625 -36.03125 L 35.5 -36.09375 L 35.5 -36.828125 C 35.5 -39.566406 34.476562 -41.507812 32.4375 -42.65625 C 31.46875 -43.226562 30.320312 -43.539062 29 -43.59375 L 17.84375 -43.59375 L 17.84375 -24.28125 L 26.609375 -24.28125 C 28.242188 -24.320312 29.59375 -24.882812 30.65625 -25.96875 C 31.71875 -27.050781 32.25 -28.390625 32.25 -29.984375 L 32.25 -30.578125 L 32.90625 -30.578125 L 32.90625 -15.265625 L 32.25 -15.265625 L 32.25 -15.796875 C 32.25 -17.429688 31.726562 -18.773438 30.6875 -19.828125 C 29.644531 -20.890625 28.328125 -21.445312 26.734375 -21.5 L 17.84375 -21.5 L 17.84375 -2.859375 L 26.53125 -2.859375 C 29.757812 -2.859375 32.46875 -3.785156 34.65625 -5.640625 C 36.851562 -7.492188 38.484375 -10.125 39.546875 -13.53125 L 40.203125 -13.53125 L 37.15625 0 L 2.78125 0 L 2.78125 -0.65625 Z M 3.65625 -0.65625 "/></g></g></g><g fill="#259b97" fill-opacity="1"><g transform="translate(148.887262, 311.424205)"><g><path d="M 62.828125 -0.65625 L 63.890625 -0.65625 L 63.890625 0 L 43.984375 0 L 43.984375 -0.59375 L 44.984375 -0.59375 C 45.734375 -0.632812 46.375 -0.941406 46.90625 -1.515625 C 47.4375 -2.097656 47.65625 -2.742188 47.5625 -3.453125 L 44.984375 -27.53125 L 32.515625 -6.03125 C 30.867188 -3.289062 30.023438 -0.835938 29.984375 1.328125 L 29.328125 1.328125 L 12.28125 -27.328125 L 9.6875 -3.453125 C 9.59375 -2.742188 9.8125 -2.085938 10.34375 -1.484375 C 10.875 -0.890625 11.519531 -0.59375 12.28125 -0.59375 L 13.265625 -0.59375 L 13.265625 0 L -0.59375 0 L -0.59375 -0.65625 L 0.46875 -0.65625 C 1.707031 -0.65625 2.78125 -1.03125 3.6875 -1.78125 C 4.59375 -2.539062 5.132812 -3.5625 5.3125 -4.84375 L 10.8125 -47.375 L 11.40625 -47.375 L 31.984375 -13.53125 L 51.75 -47.375 L 52.34375 -47.375 L 57.984375 -4.84375 C 58.203125 -3.5625 58.765625 -2.539062 59.671875 -1.78125 C 60.578125 -1.03125 61.628906 -0.65625 62.828125 -0.65625 Z M 62.828125 -0.65625 "/></g></g></g><g fill="#259b97" fill-opacity="1"><g transform="translate(215.425045, 311.424205)"><g><path d="M 3.65625 -0.65625 C 4.800781 -0.65625 5.78125 -1.066406 6.59375 -1.890625 C 7.414062 -2.710938 7.847656 -3.695312 7.890625 -4.84375 L 7.890625 -41.796875 C 7.804688 -42.941406 7.476562 -43.78125 6.90625 -44.3125 C 5.84375 -45.289062 4.757812 -45.78125 3.65625 -45.78125 L 2.78125 -45.78125 L 2.78125 -46.4375 L 28.203125 -46.4375 C 30.367188 -46.4375 32.15625 -46.601562 33.5625 -46.9375 C 34.976562 -47.269531 35.84375 -47.503906 36.15625 -47.640625 L 36.15625 -36.03125 L 35.5 -36.09375 L 35.5 -36.828125 C 35.5 -39.566406 34.476562 -41.507812 32.4375 -42.65625 C 31.46875 -43.226562 30.320312 -43.539062 29 -43.59375 L 17.84375 -43.59375 L 17.84375 -24.28125 L 26.609375 -24.28125 C 28.242188 -24.320312 29.59375 -24.882812 30.65625 -25.96875 C 31.71875 -27.050781 32.25 -28.390625 32.25 -29.984375 L 32.25 -30.578125 L 32.90625 -30.578125 L 32.90625 -15.265625 L 32.25 -15.265625 L 32.25 -15.796875 C 32.25 -17.429688 31.726562 -18.773438 30.6875 -19.828125 C 29.644531 -20.890625 28.328125 -21.445312 26.734375 -21.5 L 17.84375 -21.5 L 17.84375 -2.859375 L 26.53125 -2.859375 C 29.757812 -2.859375 32.46875 -3.785156 34.65625 -5.640625 C 36.851562 -7.492188 38.484375 -10.125 39.546875 -13.53125 L 40.203125 -13.53125 L 37.15625 0 L 2.78125 0 L 2.78125 -0.65625 Z M 3.65625 -0.65625 "/></g></g></g><g fill="#259b97" fill-opacity="1"><g transform="translate(260.601942, 311.424205)"><g><path d="M 54.203125 -45.78125 C 52.648438 -45.78125 51.476562 -45.113281 50.6875 -43.78125 C 50.332031 -43.207031 50.132812 -42.546875 50.09375 -41.796875 L 50.09375 -7.5625 C 50.09375 -4.601562 50.289062 -2.101562 50.6875 -0.0625 L 50.890625 0.921875 L 50.28125 0.921875 L 16.78125 -30.984375 L 16.78125 -4.640625 C 16.78125 -3.535156 17.175781 -2.59375 17.96875 -1.8125 C 18.769531 -1.039062 19.722656 -0.65625 20.828125 -0.65625 L 22.09375 -0.65625 L 22.09375 0 L 1.984375 0 L 1.984375 -0.65625 L 3.1875 -0.65625 C 4.332031 -0.65625 5.300781 -1.039062 6.09375 -1.8125 C 6.894531 -2.59375 7.296875 -3.554688 7.296875 -4.703125 L 7.296875 -39.140625 C 7.296875 -42.054688 7.097656 -44.488281 6.703125 -46.4375 L 6.5625 -47.4375 L 7.171875 -47.4375 L 40.671875 -15.53125 L 40.671875 -41.734375 C 40.628906 -42.878906 40.207031 -43.835938 39.40625 -44.609375 C 38.613281 -45.390625 37.664062 -45.78125 36.5625 -45.78125 L 35.359375 -45.78125 L 35.359375 -46.4375 L 55.46875 -46.4375 L 55.46875 -45.78125 Z M 54.203125 -45.78125 "/></g></g></g><g fill="#259b97" fill-opacity="1"><g transform="translate(149.255503, 249.407693)"><g><path d="M 8.8125 -14.203125 L 8.8125 -1.546875 C 8.832031 -1.171875 8.972656 -0.851562 9.234375 -0.59375 C 9.503906 -0.34375 9.828125 -0.21875 10.203125 -0.21875 L 10.453125 -0.21875 L 10.484375 0 L 3.921875 0 L 3.921875 -0.21875 L 4.203125 -0.21875 C 4.566406 -0.21875 4.878906 -0.34375 5.140625 -0.59375 C 5.410156 -0.851562 5.554688 -1.164062 5.578125 -1.53125 L 5.578125 -14.203125 L 2.671875 -14.203125 C 2.015625 -14.191406 1.488281 -13.984375 1.09375 -13.578125 C 0.707031 -13.179688 0.515625 -12.660156 0.515625 -12.015625 L 0.515625 -11.75 L 0.296875 -11.75 L 0.296875 -15.5 C 0.890625 -15.257812 1.738281 -15.128906 2.84375 -15.109375 L 11.53125 -15.109375 C 11.976562 -15.109375 12.460938 -15.148438 12.984375 -15.234375 C 13.515625 -15.328125 13.878906 -15.414062 14.078125 -15.5 L 14.078125 -11.75 L 13.859375 -11.75 L 13.859375 -12.015625 C 13.859375 -12.898438 13.519531 -13.53125 12.84375 -13.90625 C 12.53125 -14.09375 12.148438 -14.191406 11.703125 -14.203125 Z M 8.8125 -14.203125 "/></g></g></g><g fill="#259b97" fill-opacity="1"><g transform="translate(179.85492, 249.407693)"><g><path d="M 11.40625 -0.21875 C 11.78125 -0.21875 12.066406 -0.3125 12.265625 -0.5 C 12.597656 -0.820312 12.769531 -1.171875 12.78125 -1.546875 L 12.78125 -7.046875 L 5.796875 -7.046875 L 5.796875 -1.578125 C 5.796875 -1.203125 5.929688 -0.878906 6.203125 -0.609375 C 6.484375 -0.347656 6.8125 -0.21875 7.1875 -0.21875 L 7.4375 -0.21875 L 7.453125 0 L 0.90625 0 L 0.90625 -0.21875 L 1.1875 -0.21875 C 1.5625 -0.21875 1.878906 -0.347656 2.140625 -0.609375 C 2.410156 -0.878906 2.550781 -1.203125 2.5625 -1.578125 L 2.5625 -13.515625 C 2.550781 -13.890625 2.410156 -14.207031 2.140625 -14.46875 C 1.878906 -14.738281 1.5625 -14.875 1.1875 -14.875 L 0.90625 -14.875 L 0.90625 -15.09375 L 7.453125 -15.09375 L 7.4375 -14.875 L 7.1875 -14.875 C 6.8125 -14.875 6.484375 -14.738281 6.203125 -14.46875 C 5.929688 -14.207031 5.796875 -13.890625 5.796875 -13.515625 L 5.796875 -7.984375 L 12.78125 -7.984375 L 12.78125 -13.515625 C 12.769531 -13.890625 12.628906 -14.207031 12.359375 -14.46875 C 12.097656 -14.738281 11.78125 -14.875 11.40625 -14.875 L 11.125 -14.875 L 11.125 -15.09375 L 17.6875 -15.09375 L 17.6875 -14.875 L 17.40625 -14.875 C 17.03125 -14.875 16.703125 -14.738281 16.421875 -14.46875 C 16.148438 -14.207031 16.015625 -13.890625 16.015625 -13.515625 L 16.015625 -1.578125 C 16.015625 -1.203125 16.148438 -0.878906 16.421875 -0.609375 C 16.703125 -0.347656 17.03125 -0.21875 17.40625 -0.21875 L 17.6875 -0.21875 L 17.6875 0 L 11.125 0 L 11.125 -0.21875 Z M 11.40625 -0.21875 "/></g></g></g><g fill="#259b97" fill-opacity="1"><g transform="translate(214.659022, 249.407693)"><g><path d="M 1.1875 -0.21875 C 1.5625 -0.21875 1.878906 -0.347656 2.140625 -0.609375 C 2.410156 -0.878906 2.550781 -1.203125 2.5625 -1.578125 L 2.5625 -13.578125 C 2.53125 -13.953125 2.425781 -14.226562 2.25 -14.40625 C 1.894531 -14.71875 1.539062 -14.875 1.1875 -14.875 L 0.90625 -14.875 L 0.90625 -15.09375 L 9.171875 -15.09375 C 9.867188 -15.09375 10.445312 -15.144531 10.90625 -15.25 C 11.363281 -15.363281 11.644531 -15.441406 11.75 -15.484375 L 11.75 -11.703125 L 11.53125 -11.734375 L 11.53125 -11.96875 C 11.53125 -12.851562 11.203125 -13.484375 10.546875 -13.859375 C 10.222656 -14.046875 9.847656 -14.148438 9.421875 -14.171875 L 5.796875 -14.171875 L 5.796875 -7.890625 L 8.640625 -7.890625 C 9.171875 -7.898438 9.609375 -8.082031 9.953125 -8.4375 C 10.304688 -8.789062 10.484375 -9.226562 10.484375 -9.75 L 10.484375 -9.9375 L 10.6875 -9.9375 L 10.6875 -4.953125 L 10.484375 -4.953125 L 10.484375 -5.125 C 10.484375 -5.664062 10.3125 -6.109375 9.96875 -6.453125 C 9.632812 -6.796875 9.207031 -6.972656 8.6875 -6.984375 L 5.796875 -6.984375 L 5.796875 -0.921875 L 8.625 -0.921875 C 9.675781 -0.921875 10.554688 -1.222656 11.265625 -1.828125 C 11.972656 -2.429688 12.5 -3.289062 12.84375 -4.40625 L 13.0625 -4.40625 L 12.078125 0 L 0.90625 0 L 0.90625 -0.21875 Z M 1.1875 -0.21875 "/></g></g></g><g fill="#259b97" fill-opacity="1"><g transform="translate(320.918824, 311.82873)"><g><path d="M 31.5 -50.75 L 31.5 -5.546875 C 31.550781 -4.210938 32.050781 -3.082031 33 -2.15625 C 33.945312 -1.226562 35.085938 -0.765625 36.421875 -0.765625 L 37.359375 -0.765625 L 37.421875 0 L 14.015625 0 L 14.015625 -0.765625 L 15.015625 -0.765625 C 16.296875 -0.765625 17.410156 -1.226562 18.359375 -2.15625 C 19.316406 -3.082031 19.847656 -4.1875 19.953125 -5.46875 L 19.953125 -50.75 L 9.546875 -50.75 C 7.179688 -50.695312 5.304688 -49.953125 3.921875 -48.515625 C 2.535156 -47.078125 1.84375 -45.203125 1.84375 -42.890625 L 1.84375 -41.96875 L 1.078125 -41.96875 L 1.078125 -55.375 C 3.179688 -54.5 6.210938 -54.035156 10.171875 -53.984375 L 41.203125 -53.984375 C 42.796875 -53.984375 44.53125 -54.132812 46.40625 -54.4375 C 48.28125 -54.75 49.578125 -55.0625 50.296875 -55.375 L 50.296875 -41.96875 L 49.515625 -41.96875 L 49.515625 -42.890625 C 49.515625 -46.078125 48.3125 -48.335938 45.90625 -49.671875 C 44.769531 -50.335938 43.40625 -50.695312 41.8125 -50.75 Z M 31.5 -50.75 "/></g></g></g><g fill="#259b97" fill-opacity="1"><g transform="translate(2.500779, 310.673466)"><g><path d="M 35.265625 1.03125 C 25.359375 1.007812 17.582031 -1.488281 11.9375 -6.46875 C 6.289062 -11.445312 3.46875 -18.273438 3.46875 -26.953125 C 3.46875 -35.628906 6.265625 -42.46875 11.859375 -47.46875 C 17.453125 -52.476562 25.128906 -54.984375 34.890625 -54.984375 C 42.335938 -54.984375 48.726562 -53.597656 54.0625 -50.828125 L 54.21875 -37.578125 L 53.609375 -37.578125 C 50.984375 -47.023438 45 -51.75 35.65625 -51.75 C 29.601562 -51.75 24.816406 -49.550781 21.296875 -45.15625 C 17.773438 -40.769531 16.015625 -34.773438 16.015625 -27.171875 C 16.015625 -19.578125 17.695312 -13.546875 21.0625 -9.078125 C 24.425781 -4.617188 28.984375 -2.3125 34.734375 -2.15625 C 40.691406 -2.15625 45.234375 -3.644531 48.359375 -6.625 C 51.546875 -9.707031 53.753906 -14.992188 54.984375 -22.484375 L 55.609375 -22.484375 L 56.375 -9.234375 C 52.21875 -2.359375 45.179688 1.0625 35.265625 1.03125 Z M 35.265625 1.03125 "/></g></g></g><path stroke-linecap="butt" transform="matrix(0.75, 0, 0, 0.75, 60.801505, 241.288343)" fill="none" stroke-linejoin="miter" d="M -0.000964343 2.00096 L 85.19175 2.00096 " stroke="#259b97" stroke-width="4" stroke-opacity="1" stroke-miterlimit="4"/><path stroke-linecap="butt" transform="matrix(0.75, 0, 0, 0.75, 252.842918, 240.13305)" fill="none" stroke-linejoin="miter" d="M 0.00110894 1.999684 L 85.193823 1.999684 " stroke="#259b97" stroke-width="4" stroke-opacity="1" stroke-miterlimit="4"/><g fill="#259b97" fill-opacity="1"><g transform="translate(120.17586, 338.005934)"><g><path d="M 10.59375 -0.203125 C 10.945312 -0.203125 11.210938 -0.285156 11.390625 -0.453125 C 11.703125 -0.765625 11.863281 -1.09375 11.875 -1.4375 L 11.875 -6.546875 L 5.390625 -6.546875 L 5.390625 -1.46875 C 5.390625 -1.113281 5.515625 -0.8125 5.765625 -0.5625 C 6.023438 -0.320312 6.328125 -0.203125 6.671875 -0.203125 L 6.90625 -0.203125 L 6.9375 0 L 0.84375 0 L 0.84375 -0.203125 L 1.109375 -0.203125 C 1.453125 -0.203125 1.742188 -0.320312 1.984375 -0.5625 C 2.234375 -0.8125 2.367188 -1.113281 2.390625 -1.46875 L 2.390625 -12.5625 C 2.367188 -12.90625 2.234375 -13.203125 1.984375 -13.453125 C 1.742188 -13.703125 1.453125 -13.828125 1.109375 -13.828125 L 0.84375 -13.828125 L 0.84375 -14.015625 L 6.9375 -14.015625 L 6.90625 -13.828125 L 6.671875 -13.828125 C 6.328125 -13.828125 6.023438 -13.703125 5.765625 -13.453125 C 5.515625 -13.203125 5.390625 -12.90625 5.390625 -12.5625 L 5.390625 -7.40625 L 11.875 -7.40625 L 11.875 -12.5625 C 11.863281 -12.90625 11.734375 -13.203125 11.484375 -13.453125 C 11.242188 -13.703125 10.945312 -13.828125 10.59375 -13.828125 L 10.34375 -13.828125 L 10.34375 -14.015625 L 16.421875 -14.015625 L 16.421875 -13.828125 L 16.171875 -13.828125 C 15.816406 -13.828125 15.515625 -13.703125 15.265625 -13.453125 C 15.015625 -13.203125 14.890625 -12.90625 14.890625 -12.5625 L 14.890625 -1.46875 C 14.890625 -1.113281 15.015625 -0.8125 15.265625 -0.5625 C 15.515625 -0.320312 15.816406 -0.203125 16.171875 -0.203125 L 16.421875 -0.203125 L 16.421875 0 L 10.34375 0 L 10.34375 -0.203125 Z M 10.59375 -0.203125 "/></g></g></g><g fill="#259b97" fill-opacity="1"><g transform="translate(153.429361, 338.005934)"><g><path d="M 3.109375 -12.328125 C 4.535156 -13.640625 6.453125 -14.296875 8.859375 -14.296875 C 11.273438 -14.296875 13.191406 -13.640625 14.609375 -12.328125 C 16.035156 -11.023438 16.75 -9.25 16.75 -7 C 16.75 -4.757812 16.035156 -2.984375 14.609375 -1.671875 C 13.191406 -0.367188 11.273438 0.28125 8.859375 0.28125 C 6.453125 0.28125 4.535156 -0.367188 3.109375 -1.671875 C 1.691406 -2.984375 0.984375 -4.757812 0.984375 -7 C 0.984375 -9.25 1.691406 -11.023438 3.109375 -12.328125 Z M 5.5 -2.296875 C 6.320312 -1.140625 7.441406 -0.5625 8.859375 -0.5625 C 10.273438 -0.5625 11.394531 -1.140625 12.21875 -2.296875 C 13.050781 -3.453125 13.46875 -5.023438 13.46875 -7.015625 C 13.46875 -9.003906 13.050781 -10.578125 12.21875 -11.734375 C 11.394531 -12.890625 10.273438 -13.46875 8.859375 -13.46875 C 7.441406 -13.46875 6.320312 -12.890625 5.5 -11.734375 C 4.675781 -10.578125 4.265625 -9.003906 4.265625 -7.015625 C 4.265625 -5.023438 4.675781 -3.453125 5.5 -2.296875 Z M 5.5 -2.296875 "/></g></g></g><g fill="#259b97" fill-opacity="1"><g transform="translate(187.023118, 338.005934)"><g><path d="M 8.1875 -13.203125 L 8.1875 -1.4375 C 8.207031 -1.09375 8.335938 -0.800781 8.578125 -0.5625 C 8.828125 -0.320312 9.125 -0.203125 9.46875 -0.203125 L 9.71875 -0.203125 L 9.734375 0 L 3.640625 0 L 3.640625 -0.203125 L 3.90625 -0.203125 C 4.238281 -0.203125 4.523438 -0.320312 4.765625 -0.5625 C 5.015625 -0.800781 5.15625 -1.085938 5.1875 -1.421875 L 5.1875 -13.203125 L 2.484375 -13.203125 C 1.867188 -13.191406 1.378906 -13 1.015625 -12.625 C 0.660156 -12.25 0.484375 -11.757812 0.484375 -11.15625 L 0.484375 -10.921875 L 0.28125 -10.921875 L 0.28125 -14.40625 C 0.832031 -14.175781 1.617188 -14.054688 2.640625 -14.046875 L 10.71875 -14.046875 C 11.132812 -14.046875 11.582031 -14.082031 12.0625 -14.15625 C 12.550781 -14.238281 12.890625 -14.320312 13.078125 -14.40625 L 13.078125 -10.921875 L 12.875 -10.921875 L 12.875 -11.15625 C 12.875 -11.988281 12.5625 -12.578125 11.9375 -12.921875 C 11.644531 -13.097656 11.289062 -13.191406 10.875 -13.203125 Z M 8.1875 -13.203125 "/></g></g></g><g fill="#259b97" fill-opacity="1"><g transform="translate(216.373584, 338.005934)"><g><path d="M 1.109375 -0.203125 C 1.453125 -0.203125 1.742188 -0.320312 1.984375 -0.5625 C 2.234375 -0.8125 2.367188 -1.113281 2.390625 -1.46875 L 2.390625 -12.625 C 2.359375 -12.96875 2.253906 -13.21875 2.078125 -13.375 C 1.765625 -13.675781 1.441406 -13.828125 1.109375 -13.828125 L 0.84375 -13.828125 L 0.84375 -14.015625 L 8.515625 -14.015625 C 9.171875 -14.015625 9.710938 -14.066406 10.140625 -14.171875 C 10.566406 -14.273438 10.828125 -14.34375 10.921875 -14.375 L 10.921875 -10.875 L 10.71875 -10.890625 L 10.71875 -11.125 C 10.71875 -11.945312 10.410156 -12.53125 9.796875 -12.875 C 9.503906 -13.050781 9.15625 -13.144531 8.75 -13.15625 L 5.390625 -13.15625 L 5.390625 -7.328125 L 8.03125 -7.328125 C 8.53125 -7.335938 8.9375 -7.503906 9.25 -7.828125 C 9.570312 -8.160156 9.734375 -8.566406 9.734375 -9.046875 L 9.734375 -9.234375 L 9.9375 -9.234375 L 9.9375 -4.609375 L 9.734375 -4.609375 L 9.734375 -4.765625 C 9.734375 -5.265625 9.578125 -5.671875 9.265625 -5.984375 C 8.953125 -6.304688 8.554688 -6.472656 8.078125 -6.484375 L 5.390625 -6.484375 L 5.390625 -0.859375 L 8.015625 -0.859375 C 8.984375 -0.859375 9.796875 -1.140625 10.453125 -1.703125 C 11.117188 -2.265625 11.613281 -3.0625 11.9375 -4.09375 L 12.140625 -4.09375 L 11.21875 0 L 0.84375 0 L 0.84375 -0.203125 Z M 1.109375 -0.203125 "/></g></g></g><g fill="#259b97" fill-opacity="1"><g transform="translate(245.0235, 338.005934)"><g><path d="M 1.109375 -0.203125 C 1.453125 -0.203125 1.742188 -0.320312 1.984375 -0.5625 C 2.234375 -0.8125 2.367188 -1.113281 2.390625 -1.46875 L 2.390625 -12.5625 C 2.367188 -12.90625 2.234375 -13.203125 1.984375 -13.453125 C 1.742188 -13.703125 1.453125 -13.828125 1.109375 -13.828125 L 0.84375 -13.828125 L 0.84375 -14.015625 L 6.9375 -14.015625 L 6.90625 -13.828125 L 6.671875 -13.828125 C 6.328125 -13.828125 6.023438 -13.703125 5.765625 -13.453125 C 5.515625 -13.203125 5.390625 -12.90625 5.390625 -12.5625 L 5.390625 -0.859375 L 8.015625 -0.859375 C 8.984375 -0.859375 9.796875 -1.140625 10.453125 -1.703125 C 11.117188 -2.265625 11.613281 -3.0625 11.9375 -4.09375 L 12.140625 -4.09375 L 11.21875 0 L 0.84375 0 L 0.84375 -0.203125 Z M 1.109375 -0.203125 "/></g></g></g></svg>