<svg xmlns="http://www.w3.org/2000/svg" xmlns:xlink="http://www.w3.org/1999/xlink" width="500" zoomAndPan="magnify" viewBox="0 0 375 374.999991" height="500" preserveAspectRatio="xMidYMid meet" version="1.0"><defs><clipPath id="b7cf6dae4b"><path d="M 195 9.761719 L 248 9.761719 L 248 145 L 195 145 Z M 195 9.761719 " clip-rule="nonzero"/></clipPath><clipPath id="e6a52bdf71"><path d="M 127 9.761719 L 180 9.761719 L 180 145 L 127 145 Z M 127 9.761719 " clip-rule="nonzero"/></clipPath><clipPath id="bd563c5e9c"><path d="M 3.554688 127 L 147 127 L 147 183 L 3.554688 183 Z M 3.554688 127 " clip-rule="nonzero"/></clipPath><clipPath id="55819f8b0a"><path d="M 3.554688 192 L 147 192 L 147 248 L 3.554688 248 Z M 3.554688 192 " clip-rule="nonzero"/></clipPath><clipPath id="1bef363e2f"><path d="M 195 230 L 248 230 L 248 365.261719 L 195 365.261719 Z M 195 230 " clip-rule="nonzero"/></clipPath><clipPath id="fbbd1e0401"><path d="M 127 230 L 180 230 L 180 365.261719 L 127 365.261719 Z M 127 230 " clip-rule="nonzero"/></clipPath><clipPath id="42ce8d259e"><path d="M 228 192 L 371.804688 192 L 371.804688 248 L 228 248 Z M 228 192 " clip-rule="nonzero"/></clipPath><clipPath id="8241580141"><path d="M 228 126 L 371.804688 126 L 371.804688 182 L 228 182 Z M 228 126 " clip-rule="nonzero"/></clipPath></defs><g clip-path="url(#b7cf6dae4b)"><path fill="#ffffff" d="M 203.417969 135.746094 L 203.417969 110.210938 L 224.894531 98.691406 C 232.003906 94.875 237.621094 89.496094 241.476562 83.074219 C 245.332031 76.648438 247.417969 68.257812 247.417969 60.1875 L 247.417969 9.761719 L 241.636719 13.097656 L 217.148438 27.105469 C 210.363281 30.960938 204.984375 36.339844 201.328125 42.644531 C 197.675781 48.988281 195.710938 61.273438 195.710938 69.101562 L 195.710938 92.707031 L 199.363281 90.742188 C 201.933594 89.375 203.457031 86.847656 203.457031 83.914062 L 203.457031 69.101562 C 203.457031 62.636719 205.0625 56.65625 208.035156 51.515625 C 211.003906 46.378906 215.421875 42.003906 221.042969 38.789062 L 239.75 28.070312 L 239.75 60.1875 C 239.75 66.8125 238.066406 72.996094 234.933594 78.214844 C 231.800781 83.472656 227.183594 87.851562 221.363281 90.980469 L 199.84375 102.503906 C 197.273438 103.867188 195.75 106.398438 195.75 109.328125 L 195.75 144.5 L 199.402344 142.53125 C 201.933594 141.207031 203.417969 138.675781 203.417969 135.746094 Z M 203.417969 135.746094 " fill-opacity="1" fill-rule="nonzero"/></g><g clip-path="url(#e6a52bdf71)"><path fill="#ffffff" d="M 150.101562 98.730469 L 171.582031 110.253906 L 171.582031 135.785156 C 171.582031 138.71875 173.066406 141.246094 175.675781 142.609375 L 179.328125 144.578125 L 179.328125 109.410156 C 179.328125 106.480469 177.804688 103.949219 175.234375 102.585938 L 153.714844 91.0625 C 147.894531 87.929688 143.277344 83.554688 140.144531 78.296875 C 137.011719 73.074219 135.328125 66.894531 135.328125 60.269531 L 135.328125 28.152344 L 154.035156 38.871094 C 159.617188 42.082031 164.03125 46.457031 167.042969 51.597656 C 170.015625 56.734375 171.621094 62.71875 171.621094 69.183594 L 171.621094 83.996094 C 171.621094 86.925781 173.144531 89.457031 175.714844 90.820312 L 179.367188 92.789062 L 179.367188 69.183594 C 179.367188 61.351562 177.402344 49.066406 173.75 42.726562 C 170.054688 36.382812 164.714844 31.042969 157.929688 27.1875 L 133.441406 13.175781 L 127.660156 9.84375 L 127.660156 60.269531 C 127.660156 68.296875 129.746094 76.6875 133.601562 83.152344 C 137.375 89.535156 142.996094 94.917969 150.101562 98.730469 Z M 150.101562 98.730469 " fill-opacity="1" fill-rule="nonzero"/></g><path fill="#ffffff" d="M 89.078125 121.253906 L 100.4375 127.796875 L 109.554688 133.054688 L 109.671875 128.921875 C 109.753906 125.992188 108.347656 123.421875 105.820312 121.933594 L 104.332031 121.09375 L 92.972656 114.546875 C 87.390625 111.335938 82.976562 106.921875 80.003906 101.78125 C 77.035156 96.640625 75.46875 90.621094 75.507812 84.15625 L 75.589844 62.597656 L 103.410156 78.65625 C 109.152344 81.988281 113.648438 86.527344 116.617188 91.863281 C 119.589844 97.203125 121.113281 103.386719 120.875 110.011719 L 120.113281 134.421875 C 120.03125 137.351562 121.4375 139.921875 123.964844 141.367188 L 154.4375 158.953125 L 154.558594 154.777344 C 154.636719 151.84375 153.234375 149.277344 150.703125 147.832031 L 128.582031 135.0625 L 129.34375 110.695312 C 129.625 102.664062 127.78125 95.078125 124.125 88.53125 C 120.472656 81.988281 114.25 75.964844 107.304688 71.953125 L 73.660156 52.5625 L 63.585938 46.738281 L 63.542969 53.402344 L 63.421875 81.628906 C 63.382812 89.457031 65.351562 96.761719 68.964844 103.105469 C 72.65625 109.488281 82.292969 117.320312 89.078125 121.253906 Z M 89.078125 121.253906 " fill-opacity="1" fill-rule="nonzero"/><g clip-path="url(#bd563c5e9c)"><path fill="#ffffff" d="M 47.324219 175.773438 C 54.269531 179.789062 62.582031 182.15625 70.089844 182.074219 C 77.59375 181.957031 85.0625 179.789062 91.929688 175.53125 L 112.644531 162.683594 L 134.765625 175.453125 C 137.292969 176.898438 140.226562 176.855469 142.714844 175.332031 L 146.246094 173.125 L 115.777344 155.539062 C 113.246094 154.09375 110.316406 154.132812 107.828125 155.660156 L 87.070312 168.546875 C 81.449219 172.039062 75.347656 173.847656 69.246094 173.925781 C 63.140625 174.007812 56.960938 172.402344 51.21875 169.109375 L 23.398438 153.050781 L 42.023438 142.210938 C 47.605469 138.957031 53.585938 137.3125 59.527344 137.3125 C 65.472656 137.3125 71.453125 138.917969 77.035156 142.128906 L 88.394531 148.671875 L 89.878906 149.515625 C 92.410156 151.003906 95.339844 150.921875 97.828125 149.394531 L 101.363281 147.226562 L 92.25 141.96875 L 80.886719 135.425781 C 74.101562 131.53125 62.5 127.074219 55.152344 127.074219 C 47.847656 127.113281 40.539062 129.082031 33.753906 133.015625 L 9.34375 147.226562 L 3.5625 150.601562 L 13.640625 156.421875 Z M 47.324219 175.773438 " fill-opacity="1" fill-rule="nonzero"/></g><path fill="#ffffff" d="M 128.542969 239.929688 L 150.664062 227.160156 C 153.191406 225.714844 154.636719 223.148438 154.519531 220.214844 L 154.398438 216.039062 L 123.964844 233.625 C 121.4375 235.109375 119.992188 237.679688 120.070312 240.570312 L 120.835938 264.980469 C 121.035156 271.566406 119.550781 277.789062 116.578125 283.128906 C 113.609375 288.464844 109.109375 293.003906 103.371094 296.335938 L 75.546875 312.394531 L 75.46875 290.835938 C 75.425781 284.371094 77.035156 278.390625 79.964844 273.210938 C 82.933594 268.070312 87.3125 263.695312 92.933594 260.445312 L 104.292969 253.898438 L 105.777344 253.058594 C 108.308594 251.570312 109.753906 249.042969 109.632812 246.070312 L 109.511719 241.9375 L 100.398438 247.195312 L 89.039062 253.738281 C 82.253906 257.632812 72.617188 265.503906 68.964844 271.84375 C 65.308594 278.1875 63.382812 285.496094 63.421875 293.324219 L 63.542969 321.546875 L 63.585938 328.210938 L 73.660156 322.390625 L 107.265625 303 C 114.210938 298.984375 120.433594 292.964844 124.085938 286.417969 C 127.738281 279.875 129.585938 272.289062 129.304688 264.257812 Z M 128.542969 239.929688 " fill-opacity="1" fill-rule="nonzero"/><g clip-path="url(#55819f8b0a)"><path fill="#ffffff" d="M 92.25 233.0625 L 101.363281 227.804688 L 97.828125 225.636719 C 95.339844 224.109375 92.410156 224.03125 89.878906 225.515625 L 88.394531 226.359375 L 77.035156 232.902344 C 71.453125 236.113281 65.429688 237.761719 59.527344 237.71875 C 53.585938 237.71875 47.605469 236.074219 42.023438 232.824219 L 23.398438 221.984375 L 51.21875 205.921875 C 56.960938 202.589844 63.140625 200.984375 69.246094 201.105469 C 75.347656 201.1875 81.488281 202.992188 87.070312 206.484375 L 107.828125 219.375 C 110.316406 220.9375 113.246094 220.9375 115.777344 219.492188 L 146.246094 201.910156 L 142.714844 199.699219 C 140.226562 198.175781 137.292969 198.136719 134.765625 199.582031 L 112.644531 212.347656 L 91.929688 199.5 C 85.101562 195.246094 77.59375 193.078125 70.089844 192.957031 C 62.582031 192.835938 54.269531 195.203125 47.324219 199.257812 L 13.722656 218.652344 L 3.644531 224.472656 L 9.425781 227.84375 L 33.835938 242.054688 C 40.578125 245.992188 47.886719 247.957031 55.234375 248 C 62.539062 248 74.183594 243.582031 80.96875 239.648438 Z M 92.25 233.0625 " fill-opacity="1" fill-rule="nonzero"/></g><g clip-path="url(#1bef363e2f)"><path fill="#ffffff" d="M 224.9375 276.261719 L 203.457031 264.738281 L 203.457031 239.246094 C 203.457031 236.316406 201.933594 233.785156 199.363281 232.421875 L 195.710938 230.453125 L 195.710938 265.621094 C 195.710938 268.554688 197.234375 271.082031 199.804688 272.449219 L 221.324219 283.96875 C 227.144531 287.101562 231.761719 291.476562 234.894531 296.738281 C 238.023438 301.957031 239.710938 308.140625 239.710938 314.761719 L 239.710938 346.882812 L 221 336.160156 C 215.421875 332.949219 211.003906 328.613281 207.992188 323.476562 C 205.023438 318.335938 203.417969 312.355469 203.417969 305.890625 L 203.417969 291.078125 C 203.417969 288.144531 201.890625 285.617188 199.324219 284.25 L 195.667969 282.285156 L 195.667969 305.890625 C 195.667969 313.71875 197.636719 326.003906 201.289062 332.347656 C 204.941406 338.691406 210.324219 344.03125 217.109375 347.886719 L 241.597656 361.894531 L 247.378906 365.226562 L 247.378906 314.804688 C 247.378906 306.773438 245.289062 298.382812 241.4375 291.917969 C 237.664062 285.457031 232.003906 280.074219 224.9375 276.261719 Z M 224.9375 276.261719 " fill-opacity="1" fill-rule="nonzero"/></g><g clip-path="url(#fbbd1e0401)"><path fill="#ffffff" d="M 171.582031 239.246094 L 171.582031 264.78125 L 150.101562 276.300781 C 142.996094 280.074219 137.375 285.496094 133.519531 291.917969 C 129.667969 298.382812 127.578125 306.773438 127.578125 314.804688 L 127.578125 365.226562 L 133.359375 361.894531 L 157.890625 347.886719 C 164.675781 344.03125 170.054688 338.652344 173.707031 332.347656 C 177.363281 326.003906 179.328125 313.71875 179.328125 305.890625 L 179.328125 282.285156 L 175.675781 284.25 C 173.105469 285.617188 171.582031 288.144531 171.582031 291.078125 L 171.582031 305.890625 C 171.582031 312.355469 169.972656 318.335938 167.003906 323.476562 C 164.03125 328.613281 159.617188 332.988281 153.996094 336.160156 L 135.289062 346.882812 L 135.289062 314.761719 C 135.289062 308.140625 136.972656 301.957031 140.105469 296.738281 C 143.238281 291.476562 147.851562 287.101562 153.675781 283.96875 L 175.195312 272.449219 C 177.761719 271.082031 179.289062 268.554688 179.289062 265.621094 L 179.289062 230.453125 L 175.636719 232.421875 C 173.105469 233.785156 171.582031 236.316406 171.582031 239.246094 Z M 171.582031 239.246094 " fill-opacity="1" fill-rule="nonzero"/></g><g clip-path="url(#42ce8d259e)"><path fill="#ffffff" d="M 361.277344 218.609375 L 327.671875 199.21875 C 320.726562 195.203125 312.417969 192.796875 304.910156 192.914062 C 297.402344 193.035156 289.933594 195.203125 283.070312 199.460938 L 262.355469 212.308594 L 240.234375 199.539062 C 237.703125 198.09375 234.773438 198.09375 232.285156 199.660156 L 228.75 201.867188 L 259.222656 219.453125 C 261.75 220.898438 264.683594 220.859375 267.171875 219.332031 L 287.925781 206.445312 C 293.546875 202.953125 299.652344 201.144531 305.753906 201.066406 C 311.855469 200.984375 318.039062 202.589844 323.777344 205.882812 L 351.601562 221.941406 L 332.972656 232.78125 C 327.390625 236.035156 321.410156 237.679688 315.46875 237.679688 C 309.527344 237.679688 303.542969 236.074219 297.964844 232.863281 L 286.601562 226.320312 L 285.117188 225.476562 C 282.589844 223.988281 279.65625 224.070312 277.167969 225.597656 L 273.636719 227.765625 L 282.75 233.023438 L 294.109375 239.566406 C 300.894531 243.460938 312.496094 247.917969 319.84375 247.917969 C 327.152344 247.878906 334.457031 245.910156 341.242188 241.976562 L 365.652344 227.765625 L 371.433594 224.390625 Z M 361.277344 218.609375 " fill-opacity="1" fill-rule="nonzero"/></g><path fill="#ffffff" d="M 285.921875 253.738281 L 274.558594 247.195312 L 265.445312 241.9375 L 265.363281 246.070312 C 265.285156 249 266.691406 251.570312 269.21875 253.058594 L 270.703125 253.898438 L 282.066406 260.445312 C 287.644531 263.65625 292.0625 268.070312 294.992188 273.210938 C 297.964844 278.347656 299.53125 284.371094 299.488281 290.796875 L 299.410156 312.355469 L 271.585938 296.296875 C 265.847656 292.964844 261.351562 288.425781 258.378906 283.085938 C 255.40625 277.746094 253.882812 271.566406 254.125 264.941406 L 254.886719 240.53125 C 254.964844 237.601562 253.5625 235.03125 250.992188 233.585938 L 220.519531 216 L 220.398438 220.175781 C 220.320312 223.105469 221.722656 225.675781 224.253906 227.121094 L 246.375 239.886719 L 245.570312 264.257812 C 245.289062 272.289062 247.136719 279.875 250.792969 286.417969 C 254.445312 292.964844 260.667969 298.984375 267.613281 303 L 301.214844 322.390625 L 311.292969 328.210938 L 311.332031 321.546875 L 311.453125 293.324219 C 311.492188 285.496094 309.527344 278.1875 305.914062 271.84375 C 302.378906 265.503906 292.703125 257.671875 285.921875 253.738281 Z M 285.921875 253.738281 " fill-opacity="1" fill-rule="nonzero"/><path fill="#ffffff" d="M 246.457031 135.0625 L 224.335938 147.832031 C 221.804688 149.277344 220.359375 151.84375 220.480469 154.777344 L 220.601562 158.953125 L 251.070312 141.367188 C 253.601562 139.882812 255.046875 137.3125 254.964844 134.421875 L 254.203125 110.011719 C 254.003906 103.386719 255.488281 97.203125 258.460938 91.863281 C 261.429688 86.527344 265.886719 81.988281 271.667969 78.65625 L 299.488281 62.597656 L 299.570312 84.15625 C 299.609375 90.621094 298.003906 96.601562 295.074219 101.78125 C 292.101562 106.921875 287.726562 111.296875 282.105469 114.546875 L 270.746094 121.09375 L 269.257812 121.933594 C 266.730469 123.421875 265.285156 125.949219 265.40625 128.882812 L 265.523438 133.015625 L 274.640625 127.757812 L 286 121.210938 C 292.785156 117.320312 302.421875 109.449219 306.074219 103.105469 C 309.726562 96.761719 311.65625 89.457031 311.613281 81.628906 L 311.492188 53.402344 L 311.453125 46.738281 L 301.375 52.5625 L 267.773438 71.953125 C 260.828125 75.964844 254.605469 81.988281 250.953125 88.53125 C 247.296875 95.078125 245.453125 102.664062 245.734375 110.695312 Z M 246.457031 135.0625 " fill-opacity="1" fill-rule="nonzero"/><g clip-path="url(#8241580141)"><path fill="#ffffff" d="M 282.75 141.929688 L 273.636719 147.1875 L 277.167969 149.355469 C 279.65625 150.882812 282.589844 150.960938 285.117188 149.476562 L 286.601562 148.632812 L 297.964844 142.089844 C 303.542969 138.878906 309.566406 137.230469 315.46875 137.273438 C 321.410156 137.273438 327.390625 138.917969 332.972656 142.167969 L 351.601562 153.007812 L 323.777344 169.070312 C 318.039062 172.402344 311.855469 174.007812 305.753906 173.886719 C 299.652344 173.804688 293.507812 172 287.925781 168.507812 L 267.171875 155.617188 C 264.683594 154.054688 261.75 154.011719 259.222656 155.5 L 228.75 173.082031 L 232.285156 175.25 C 234.773438 176.777344 237.703125 176.855469 240.230469 175.371094 L 262.355469 162.605469 L 283.070312 175.453125 C 289.894531 179.707031 297.402344 181.875 304.910156 181.996094 C 312.417969 182.117188 320.726562 179.746094 327.671875 175.691406 L 361.277344 156.300781 L 371.355469 150.480469 L 365.574219 147.109375 L 341.164062 132.894531 C 334.417969 128.960938 327.113281 126.992188 319.765625 126.953125 C 312.457031 126.953125 300.816406 131.371094 294.03125 135.304688 Z M 282.75 141.929688 " fill-opacity="1" fill-rule="nonzero"/></g><path stroke-linecap="butt" transform="matrix(-0.75, 0, 0, -0.75, 129.612637, 166.816892)" fill="none" stroke-linejoin="miter" d="M -0.000859282 2.000648 L 4.811641 2.000648 " stroke="#ffffff" stroke-width="4" stroke-opacity="1" stroke-miterlimit="4"/></svg>